<?xml version="1.0" encoding="UTF-8"?><svg id="Layer_2" xmlns="http://www.w3.org/2000/svg" viewBox="0 0 587.13 161.25"><defs><style>.cls-1{fill:#42ade2;}.cls-2{font-family:BrownPro-Bold, 'Brown Pro';font-size:66.89px;font-weight:700;}.cls-3{fill:#e6b796;}.cls-4{letter-spacing:-.05em;}.cls-5{fill:#ffe1bd;}.cls-6{fill:none;stroke:#000;stroke-miterlimit:10;stroke-width:5px;}</style></defs><g id="Layer_1-2"><text class="cls-2" transform="translate(0 56.66)"><tspan x="0" y="0">Darren Chan </tspan><tspan class="cls-4" x="380.88" y="0">Y</tspan><tspan x="414.87" y="0">u Hao</tspan></text><path d="M3.96,84.79c-.49.02-.51.02-.51.44v.32c0,2.01.02,4.04.06,6.05-.3-.04-.59-.06-.87-.06s-.57.02-.87.06c.04-1.88.06-4.63.06-7.37s-.02-5.06-.06-7.32c.3.04.59.06.87.06s.57-.02.87-.06c-.04,1.84-.06,3.68-.06,5.52v.34c0,.44.04.53.47.53.93.02,1.95.04,2.86.04s1.93-.02,2.86-.04c.42,0,.47-.08.47-.53v-.34c0-1.84-.02-3.68-.06-5.52.3.04.59.06.87.06s.57-.02.87-.06c-.04,2.26-.06,4.63-.06,7.32s.02,5.48.06,7.37c-.3-.04-.59-.06-.87-.06s-.57.02-.87.06c.04-2.01.06-4.04.06-6.05v-.32c0-.42-.02-.42-.51-.44-.8-.02-1.93-.02-2.81-.02s-2.01,0-2.81.02Z"/><path d="M19.02,91.82c-2.84,0-4.32-2.03-4.32-5.33,0-3.66,1.67-5.67,4.38-5.67,2.37,0,3.85,1.59,3.85,5.16,0,.19-.02.4-.02.61-.59-.04-1.97-.08-3.41-.08h-2.84c-.32,0-.38.06-.38.36v.15c0,2.2,1.06,3.41,2.81,3.41,1.5,0,2.07-.66,2.33-1.95.32.04.7.08,1.04.08.17,0,.38-.02.53-.04-.34,2.12-1.69,3.3-3.98,3.3ZM19,82.21c-1.48,0-2.39,1.02-2.65,2.65-.02.08-.02.17-.02.23,0,.25.04.28.47.28.38,0,.91.02,1.38.02.78,0,1.69-.02,2.58-.08.51-.04.51-.06.51-.47,0-1.08-.47-2.62-2.26-2.62Z"/><path d="M26.75,76.66c.28,0,.57-.02.85-.06-.02,2.67-.04,4.89-.04,7.56,0,2.35,0,5.1.04,7.45-.3-.04-.57-.06-.85-.06s-.57.02-.85.06c.02-1.86.04-4.8.04-7.45s-.02-5.14-.04-7.56c.3.04.57.06.85.06Z"/><path d="M31.95,76.66c.28,0,.57-.02.85-.06-.02,2.67-.04,4.89-.04,7.56,0,2.35,0,5.1.04,7.45-.3-.04-.57-.06-.85-.06s-.57.02-.85.06c.02-1.86.04-4.8.04-7.45s-.02-5.14-.04-7.56c.3.04.57.06.85.06Z"/><path d="M40.01,91.82c-2.71,0-4.32-1.82-4.32-5.5s1.61-5.5,4.32-5.5,4.32,1.82,4.32,5.5-1.61,5.5-4.32,5.5ZM40.01,82.21c-1.86,0-2.67,1.33-2.67,4.11s.8,4.11,2.67,4.11,2.67-1.33,2.67-4.11-.8-4.11-2.67-4.11Z"/><path class="cls-1" d="M58.67,89.64c-.16-.03-.31-.08-.46-.13-.15-.05-.3-.11-.44-.18-.29-.13-.57-.3-.83-.49-.52-.38-.97-.87-1.3-1.44-.33-.57-.52-1.21-.57-1.85-.02-.32-.01-.64.03-.96.02-.16.05-.31.1-.46.04-.15.09-.3.15-.45l.04.46c.01.15.03.3.05.45.04.3.09.59.16.87.14.57.34,1.1.63,1.6.28.5.64.95,1.06,1.38.21.21.43.41.66.61.12.1.23.2.35.29l.37.29Z"/><path class="cls-1" d="M58.58,90.85c-.11.05-.23.09-.35.12-.12.03-.24.06-.36.08-.24.04-.49.05-.74.04-.5-.02-1.01-.16-1.46-.41-.45-.24-.84-.6-1.13-1.01-.14-.21-.26-.43-.35-.66-.04-.12-.08-.23-.11-.35-.03-.12-.05-.24-.06-.36.08.09.16.18.24.27.08.09.15.18.23.26.16.17.31.33.48.48.32.3.67.55,1.04.75.37.2.78.36,1.21.48.21.06.44.11.66.16.11.02.23.05.35.07.12.02.23.04.36.07Z"/><path class="cls-1" d="M66.03,74.78c.16.04.31.09.47.16.15.06.3.13.44.2.29.15.57.33.82.54.52.41.95.93,1.26,1.52.3.59.47,1.24.47,1.89,0,.32-.03.64-.09.96-.03.16-.07.31-.12.46-.05.15-.11.3-.18.44l-.02-.47c0-.15-.02-.31-.03-.46-.02-.3-.06-.6-.11-.88-.11-.58-.29-1.13-.56-1.64-.26-.51-.61-.99-1.01-1.44-.2-.22-.42-.44-.64-.65-.11-.11-.23-.21-.35-.31l-.36-.31Z"/><path class="cls-1" d="M68.93,74.63c.12.03.23.08.34.12.11.05.22.1.32.16.21.12.4.27.59.43.36.33.65.74.83,1.2.18.46.25.96.19,1.44-.03.24-.08.47-.17.7-.04.11-.09.22-.14.32-.05.1-.12.21-.19.3,0-.12,0-.23,0-.35,0-.11,0-.23,0-.34,0-.22-.02-.43-.05-.64-.05-.42-.15-.82-.3-1.2-.15-.38-.35-.74-.6-1.1-.12-.18-.25-.35-.39-.53-.07-.09-.14-.17-.21-.26-.07-.09-.15-.18-.22-.27Z"/><path class="cls-5" d="M56.66,79.56c-.65.31-.9,1.08-.59,1.74l4.17,8.71,2.31-1.1-4.17-8.71c-.31-.66-1.07-.95-1.72-.64Z"/><path class="cls-5" d="M67.62,86.48l2.46-1.17-4.75-9.93c-.32-.67-1.13-.96-1.81-.63h0c-.68.33-.96,1.14-.63,1.83l4.74,9.91Z"/><path class="cls-3" d="M63.51,74.74h0c-.07.04-.14.08-.2.13.62-.17,1.3.12,1.58.72l4.75,9.93.44-.21-4.75-9.93c-.32-.67-1.13-.96-1.81-.63Z"/><path class="cls-5" d="M62.55,88.9l2.53-1.21-4.85-10.14c-.34-.71-1.18-1.01-1.88-.68h0c-.7.34-.99,1.18-.65,1.89l4.85,10.14Z"/><path class="cls-3" d="M58.36,76.88h0c-.07.04-.14.08-.21.13.64-.18,1.35.13,1.65.76l3.02,6.31.74.43-3.32-6.94c-.34-.71-1.18-1.01-1.88-.68Z"/><path class="cls-5" d="M64.69,86.87l2.53-1.21-4.85-10.14c-.34-.71-1.18-1.01-1.88-.68h0c-.7.34-.99,1.18-.65,1.89l4.85,10.14Z"/><path class="cls-3" d="M60.5,74.85h0c-.07.04-.14.08-.21.13.64-.18,1.35.13,1.65.76l3.41,7.13.74.43-3.72-7.77c-.34-.71-1.18-1.01-1.88-.68Z"/><path class="cls-3" d="M56.66,79.56c-.08.04-.14.08-.21.13.59-.15,1.22.14,1.49.72l2.48,5.18.74.43-2.78-5.81c-.32-.66-1.07-.95-1.72-.64Z"/><path class="cls-5" d="M73.44,78.59c-.9-.69-2.36.07-3.08,2.46-.5,1.67-.55,2.14-1.62,2.65l-.58-1.22s-9.38,4.53-9.02,5.27c0,0,1.13,3.5,3.04,5.13,2.83,2.43,9.47-.17,9.77-6.47.18-3.71,2.48-7.06,1.5-7.82Z"/><path class="cls-3" d="M73.44,78.59c-.17-.13-.36-.21-.56-.23.04.03.08.05.12.08.98.75-.03,2.52-.6,4.1-.46,1.27-.84,2.55-.78,3.8.27,5.45-5.23,8.08-8.54,7.09,3.24,1.37,9.26-1.24,8.98-6.94-.06-1.25.3-2.47.78-3.8.57-1.58,1.58-3.35.6-4.1Z"/><path class="cls-3" d="M69.05,83.52c-2.04.23-5.07,3.16-2.95,6.38-1.54-3.23,1-5.43,2.61-6.2.19-.09.34-.18.34-.18Z"/><path d="M84.17,91.6c.04-1.88.06-4.63.06-7.37s-.02-5.06-.06-7.32c.3.04.59.06.87.06s.57-.02.87-.06c-.04,2.26-.06,4.63-.06,7.32s.02,5.48.06,7.37c-.3-.04-.59-.06-.87-.06s-.57.02-.87.06Z"/><path d="M104.6,91.56c-.42,0-.99.04-1.35.08-.02-.17-.06-.59-.06-1.02v-.36c0-.13-.04-.21-.11-.21-.08,0-.15.06-.25.28-.53,1.16-1.65,1.48-2.77,1.48-2.18,0-3.34-1.14-3.34-3.03,0-3.17,2.79-3.37,4.97-3.54l.55-.04c.57-.04.78-.25.78-.78v-.04c0-1.61-.68-2.18-2.16-2.18-1.02,0-1.63.21-1.93.61-.19.25-.25.55-.25.87,0,.25.04.44.04.53-.25-.04-.57-.06-.8-.06-.25,0-.49.02-.76.06-.02-.13-.04-.34-.04-.59,0-1.93,1.71-2.82,3.75-2.82,1.29,0,2.81.34,3.43,1.69.3.66.32,1.23.32,1.93,0,1.29-.02,2.98-.02,3.94,0,1.14.13,2.24.3,3.2h-.27ZM100.01,86.67c-.97.21-1.74.61-1.74,1.93s.8,1.86,1.93,1.86c1.31,0,2.26-.53,2.65-1.95.08-.34.13-.74.15-1.16.02-.4.02-.7.02-.89v-.08c0-.06-.02-.15-.11-.15s-.13.04-.4.11c-.25.06-.68.11-1.12.15-.42.04-.97.11-1.38.19Z"/><path d="M110.54,82.86c-.7.68-.87,1.61-.87,3.05,0,.44.02.95.02,1.63,0,1.4.04,3.05.04,4.06-.3-.04-.59-.06-.89-.06-.28,0-.57.02-.8.06.02-.87.04-4.02.04-5v-.61c0-1.08-.02-2.18-.08-3.26-.04-.8-.13-1.57-.15-1.71.28.04.53.06.8.06s.61-.02.89-.06c0,.04.02.4.02.57,0,.38-.02.72-.02.85s.02.23.13.23c.06,0,.13-.08.19-.23.57-1.06,1.48-1.63,2.73-1.63.4,0,.83.08,1.23.23.72.27,1.21.8,1.5,1.52.02.06.04.11.11.11s.13-.08.19-.23c.3-.59.93-1.63,2.86-1.63,2.18,0,3.15,1.46,3.15,3.58v2.5c0,1.67.02,3.58.04,4.72-.19-.04-.51-.06-.8-.06-.32,0-.68.02-.89.06.02-.93.04-2.31.04-3.64,0-1.25-.02-2.14-.02-2.94-.02-1.44-.25-2.81-1.86-2.81-.61,0-1.19.21-1.63.66-.7.68-.87,1.61-.87,3.05,0,.44.02.95.02,1.63,0,1.4.04,3.05.04,4.06-.3-.04-.59-.06-.89-.06-.28,0-.57.02-.8.06.02-.93.04-2.31.04-3.64,0-1.25-.02-2.14-.02-2.94-.02-1.44-.25-2.81-1.86-2.81-.61,0-1.19.21-1.63.66Z"/><path d="M137.38,91.6h-.36c-.89,0-1.54-.06-2.35-.06-.51,0-1.46.02-1.8.06.04-1.86.06-4.4.06-7.07s-.02-5.27-.06-7.62c.34.02,1.27.06,1.76.06.87,0,1.61-.06,2.2-.06h.28c4.34,0,6.05,2.9,6.05,7.47s-1.97,7.22-5.78,7.22ZM136.64,78.36c-.15,0-1.52.02-1.52.02-.47,0-.51.02-.53.59-.04,1.67-.06,3.53-.06,5.44,0,1.54.02,3.15.04,4.46.02,1.19.04,1.21,1.12,1.27.23.02.51.02.85.02,3.87,0,4.93-1.97,4.93-5.8,0-3.03-.74-6.01-4.83-6.01Z"/><path d="M153.4,91.56c-.42,0-.99.04-1.35.08-.02-.17-.06-.59-.06-1.02v-.36c0-.13-.04-.21-.11-.21-.08,0-.15.06-.25.28-.53,1.16-1.65,1.48-2.77,1.48-2.18,0-3.34-1.14-3.34-3.03,0-3.17,2.79-3.37,4.97-3.54l.55-.04c.57-.04.78-.25.78-.78v-.04c0-1.61-.68-2.18-2.16-2.18-1.02,0-1.63.21-1.93.61-.19.25-.25.55-.25.87,0,.25.04.44.04.53-.25-.04-.57-.06-.8-.06-.25,0-.49.02-.76.06-.02-.13-.04-.34-.04-.59,0-1.93,1.71-2.82,3.75-2.82,1.29,0,2.81.34,3.43,1.69.3.66.32,1.23.32,1.93,0,1.29-.02,2.98-.02,3.94,0,1.14.13,2.24.3,3.2h-.27ZM148.81,86.67c-.97.21-1.74.61-1.74,1.93s.8,1.86,1.93,1.86c1.31,0,2.26-.53,2.65-1.95.08-.34.13-.74.15-1.16.02-.4.02-.7.02-.89v-.08c0-.06-.02-.15-.11-.15s-.13.04-.4.11c-.25.06-.68.11-1.12.15-.42.04-.97.11-1.38.19Z"/><path d="M159.45,81.47c.44-.47.99-.66,1.76-.66.19,0,.3.02.34.02.02.19.04.53.04.87s-.02.74-.04.95c-.19-.04-.32-.06-.68-.06-.89,0-1.76.51-2.16,1.82-.17.57-.25,1.27-.25,2.05,0,1.67.06,3.3.08,5.14-.27-.04-.63-.06-.89-.06s-.53.02-.8.06c.02-1.25.02-3.34.02-5.14,0-1.12,0-2.22-.04-3.45-.04-.8-.13-1.65-.19-1.99.3.04.55.06.8.06.21,0,.51-.02.76-.06.04.19.11.74.11,1.12,0,.27-.02.49-.02.59,0,.13.02.23.13.23.04,0,.08-.04.13-.11.11-.15.47-.93.91-1.4Z"/><path d="M166.37,81.47c.44-.47.99-.66,1.76-.66.19,0,.3.02.34.02.02.19.04.53.04.87s-.02.74-.04.95c-.19-.04-.32-.06-.68-.06-.89,0-1.76.51-2.16,1.82-.17.57-.25,1.27-.25,2.05,0,1.67.06,3.3.08,5.14-.27-.04-.63-.06-.89-.06s-.53.02-.8.06c.02-1.25.02-3.34.02-5.14,0-1.12,0-2.22-.04-3.45-.04-.8-.13-1.65-.19-1.99.3.04.55.06.8.06.21,0,.51-.02.76-.06.04.19.11.74.11,1.12,0,.27-.02.49-.02.59,0,.13.02.23.13.23.04,0,.08-.04.13-.11.11-.15.47-.93.91-1.4Z"/><path d="M174.18,91.82c-2.84,0-4.32-2.03-4.32-5.33,0-3.66,1.67-5.67,4.38-5.67,2.37,0,3.85,1.59,3.85,5.16,0,.19-.02.4-.02.61-.59-.04-1.97-.08-3.41-.08h-2.84c-.32,0-.38.06-.38.36v.15c0,2.2,1.06,3.41,2.81,3.41,1.5,0,2.07-.66,2.33-1.95.32.04.7.08,1.04.08.17,0,.38-.02.53-.04-.34,2.12-1.69,3.3-3.98,3.3ZM174.16,82.21c-1.48,0-2.39,1.02-2.65,2.65-.02.08-.02.17-.02.23,0,.25.04.28.47.28.38,0,.91.02,1.38.02.78,0,1.69-.02,2.58-.08.51-.04.51-.06.51-.47,0-1.08-.47-2.62-2.26-2.62Z"/><path d="M182.58,81.59c0,.38-.02.72-.02.85s.02.23.13.23c.06,0,.13-.08.19-.23.3-.59.97-1.63,2.9-1.63,2.18,0,3.15,1.46,3.15,3.58v2.5c0,1.67.02,3.58.04,4.72-.19-.04-.51-.06-.8-.06-.32,0-.68.02-.89.06.02-.93.04-2.31.04-3.64,0-1.25-.02-2.14-.02-2.94-.02-1.44-.28-2.81-1.9-2.81-.61,0-1.25.21-1.69.66-.7.68-1.02,1.5-1.02,2.94,0,.44.02,1.06.02,1.74,0,1.4.04,3.05.04,4.06-.3-.04-.59-.06-.89-.06-.28,0-.57.02-.8.06.02-.87.04-4.02.04-5v-.61c0-1.08-.02-2.18-.08-3.26-.04-.8-.13-1.57-.15-1.71.28.04.53.06.8.06s.61-.02.89-.06c0,.04.02.4.02.57Z"/><path d="M192.95,94.8c-.13-.02-.28-.02-.4-.02-.25,0-.55.02-.78.04.3-1.54.59-3.56.59-5.23.23.02.53.04.91.04.27,0,.57-.02.83-.04-.21,1.95-.74,3.83-1.14,5.21Z"/><path d="M212.53,91.56c-.42,0-.99.04-1.35.08-.02-.17-.06-.59-.06-1.02v-.36c0-.13-.04-.21-.11-.21-.08,0-.15.06-.25.28-.53,1.16-1.65,1.48-2.77,1.48-2.18,0-3.34-1.14-3.34-3.03,0-3.17,2.79-3.37,4.97-3.54l.55-.04c.57-.04.78-.25.78-.78v-.04c0-1.61-.68-2.18-2.16-2.18-1.02,0-1.63.21-1.93.61-.19.25-.25.55-.25.87,0,.25.04.44.04.53-.25-.04-.57-.06-.8-.06-.25,0-.49.02-.76.06-.02-.13-.04-.34-.04-.59,0-1.93,1.71-2.82,3.75-2.82,1.29,0,2.81.34,3.43,1.69.3.66.32,1.23.32,1.93,0,1.29-.02,2.98-.02,3.94,0,1.14.13,2.24.3,3.2h-.27ZM207.94,86.67c-.97.21-1.74.61-1.74,1.93s.8,1.86,1.93,1.86c1.31,0,2.26-.53,2.65-1.95.08-.34.13-.74.15-1.16.02-.4.02-.7.02-.89v-.08c0-.06-.02-.15-.11-.15s-.13.04-.4.11c-.25.06-.68.11-1.12.15-.42.04-.97.11-1.38.19Z"/><path d="M228.03,78.29c-.23-.08-.61-.21-.99-.21-1.06,0-1.1.93-1.12,1.88,0,.23-.02.49-.02.74,0,.3.02.36.34.36.7,0,1.27-.02,1.82-.04-.02.19-.04.44-.04.7s.02.53.04.72c-.55-.02-1.1-.04-1.9-.04-.21,0-.25.06-.25.25,0,2.43.04,6.73.06,8.95-.23-.04-.59-.06-.87-.06s-.57.02-.83.06c.04-2.98.04-5.99.04-8.97,0-.17-.02-.23-.28-.23-.55,0-.97.02-1.54.04.02-.19.04-.47.04-.72s-.02-.51-.04-.7c.57.04.99.04,1.5.04.27,0,.3-.06.3-.3,0-.21-.04-.53-.04-.89,0-1.25.23-1.95.72-2.52s1.21-.8,1.93-.8c.4,0,.78.06,1.14.19.02.19.06.53.06.83s-.04.61-.06.72ZM231.08,78.59c-.3,0-.64.02-.91.06.04-.32.06-.68.06-1.06,0-.34-.02-.72-.06-.99.27.04.57.06.87.06.28,0,.61-.02.83-.06-.02.21-.04.59-.04.99s.02.83.04,1.06c-.21-.04-.49-.06-.78-.06ZM231.01,91.54c-.23,0-.59.02-.85.06.04-1.33.04-3.15.04-5.06s0-3.87-.04-5.52c.27.04.63.06.87.06.28,0,.53-.02.83-.06-.04,1.61-.04,3.56-.04,5.44s0,3.81.04,5.14c-.3-.04-.57-.06-.85-.06Z"/><path d="M236.89,81.59c0,.38-.02.72-.02.85s.02.23.13.23c.06,0,.13-.08.19-.23.3-.59.97-1.63,2.9-1.63,2.18,0,3.15,1.46,3.15,3.58v2.5c0,1.67.02,3.58.04,4.72-.19-.04-.51-.06-.8-.06-.32,0-.68.02-.89.06.02-.93.04-2.31.04-3.64,0-1.25-.02-2.14-.02-2.94-.02-1.44-.28-2.81-1.9-2.81-.61,0-1.25.21-1.69.66-.7.68-1.02,1.5-1.02,2.94,0,.44.02,1.06.02,1.74,0,1.4.04,3.05.04,4.06-.3-.04-.59-.06-.89-.06-.28,0-.57.02-.8.06.02-.87.04-4.02.04-5v-.61c0-1.08-.02-2.18-.08-3.26-.04-.8-.13-1.57-.15-1.71.28.04.53.06.8.06s.61-.02.89-.06c0,.04.02.4.02.57Z"/><path d="M253.86,91.56c-.42,0-.99.04-1.35.08-.02-.17-.06-.59-.06-1.02v-.36c0-.13-.04-.21-.11-.21-.08,0-.15.06-.25.28-.53,1.16-1.65,1.48-2.77,1.48-2.18,0-3.34-1.14-3.34-3.03,0-3.17,2.79-3.37,4.97-3.54l.55-.04c.57-.04.78-.25.78-.78v-.04c0-1.61-.68-2.18-2.16-2.18-1.02,0-1.63.21-1.93.61-.19.25-.25.55-.25.87,0,.25.04.44.04.53-.25-.04-.57-.06-.8-.06-.25,0-.49.02-.76.06-.02-.13-.04-.34-.04-.59,0-1.93,1.71-2.82,3.75-2.82,1.29,0,2.81.34,3.43,1.69.3.66.32,1.23.32,1.93,0,1.29-.02,2.98-.02,3.94,0,1.14.13,2.24.3,3.2h-.27ZM249.27,86.67c-.97.21-1.74.61-1.74,1.93s.8,1.86,1.93,1.86c1.31,0,2.26-.53,2.65-1.95.08-.34.13-.74.15-1.16.02-.4.02-.7.02-.89v-.08c0-.06-.02-.15-.11-.15s-.13.04-.4.11c-.25.06-.68.11-1.12.15-.42.04-.97.11-1.38.19Z"/><path d="M258.16,76.66c.28,0,.57-.02.85-.06-.02,2.67-.04,4.89-.04,7.56,0,2.35,0,5.1.04,7.45-.3-.04-.57-.06-.85-.06s-.57.02-.85.06c.02-1.86.04-4.8.04-7.45s-.02-5.14-.04-7.56c.3.04.57.06.85.06Z"/><path d="M274.61,91.6c-.83,2.48-1.44,4.19-3.47,4.19-.49,0-.89-.04-1.38-.15.04-.21.06-.42.06-.61,0-.3-.04-.57-.06-.91.44.13.85.21,1.23.21,1.06,0,1.84-.91,1.84-2.05,0-1.02-.53-1.95-.83-2.88-.76-2.35-1.97-5.61-2.9-8.38.44.04.78.06,1.04.06s.64-.02.78-.06c.87,2.84,1.44,4.85,2.39,7.72.08.28.21.95.27,1.21.02.11.04.19.13.19.11,0,.11-.08.13-.19.04-.28.19-.93.27-1.19.89-2.75,1.44-5.08,2.22-7.75.19.04.55.06.78.06.25,0,.59-.02.97-.06l-3.49,10.58Z"/><path d="M283.67,91.82c-2.84,0-4.32-2.03-4.32-5.33,0-3.66,1.67-5.67,4.38-5.67,2.37,0,3.85,1.59,3.85,5.16,0,.19-.02.4-.02.61-.59-.04-1.97-.08-3.41-.08h-2.84c-.32,0-.38.06-.38.36v.15c0,2.2,1.06,3.41,2.81,3.41,1.5,0,2.07-.66,2.33-1.95.32.04.7.08,1.04.08.17,0,.38-.02.53-.04-.34,2.12-1.69,3.3-3.98,3.3ZM283.64,82.21c-1.48,0-2.39,1.02-2.65,2.65-.02.08-.02.17-.02.23,0,.25.04.28.47.28.38,0,.91.02,1.38.02.78,0,1.69-.02,2.58-.08.51-.04.51-.06.51-.47,0-1.08-.47-2.62-2.26-2.62Z"/><path d="M297.82,91.56c-.42,0-.99.04-1.35.08-.02-.17-.06-.59-.06-1.02v-.36c0-.13-.04-.21-.11-.21-.08,0-.15.06-.25.28-.53,1.16-1.65,1.48-2.77,1.48-2.18,0-3.34-1.14-3.34-3.03,0-3.17,2.79-3.37,4.97-3.54l.55-.04c.57-.04.78-.25.78-.78v-.04c0-1.61-.68-2.18-2.16-2.18-1.02,0-1.63.21-1.93.61-.19.25-.25.55-.25.87,0,.25.04.44.04.53-.25-.04-.57-.06-.8-.06-.25,0-.49.02-.76.06-.02-.13-.04-.34-.04-.59,0-1.93,1.71-2.82,3.75-2.82,1.29,0,2.82.34,3.43,1.69.3.66.32,1.23.32,1.93,0,1.29-.02,2.98-.02,3.94,0,1.14.13,2.24.3,3.2h-.28ZM293.23,86.67c-.97.21-1.74.61-1.74,1.93s.8,1.86,1.93,1.86c1.31,0,2.26-.53,2.65-1.95.08-.34.13-.74.15-1.16.02-.4.02-.7.02-.89v-.08c0-.06-.02-.15-.11-.15s-.13.04-.4.11c-.25.06-.68.11-1.12.15-.42.04-.97.11-1.38.19Z"/><path d="M303.87,81.47c.45-.47,1-.66,1.76-.66.19,0,.3.02.34.02.02.19.04.53.04.87s-.02.74-.04.95c-.19-.04-.32-.06-.68-.06-.89,0-1.76.51-2.16,1.82-.17.57-.25,1.27-.25,2.05,0,1.67.06,3.3.08,5.14-.28-.04-.64-.06-.89-.06s-.53.02-.8.06c.02-1.25.02-3.34.02-5.14,0-1.12,0-2.22-.04-3.45-.04-.8-.13-1.65-.19-1.99.3.04.55.06.8.06.21,0,.51-.02.76-.06.04.19.11.74.11,1.12,0,.27-.02.49-.02.59,0,.13.02.23.13.23.04,0,.08-.04.13-.11.11-.15.46-.93.91-1.4Z"/><path d="M322.25,91.14c0-.38.02-.8.02-.93s-.02-.25-.13-.25c-.06,0-.13.08-.19.23-.3.59-.97,1.63-2.9,1.63-2.18,0-3.15-1.46-3.15-3.58v-2.58c0-1.67-.02-3.49-.04-4.63.19.04.51.06.8.06.32,0,.68-.02.89-.06-.02.93-.04,2.22-.04,3.56,0,1.25.02,2.22.02,3.03.02,1.44.28,2.81,1.91,2.81.61,0,1.25-.21,1.69-.66.7-.68,1.02-1.61,1.02-3.05,0-.44-.02-1.04-.02-1.71,0-1.4-.04-2.96-.04-3.98.3.04.59.06.89.06.28,0,.57-.02.8-.06-.02.87-.04,3.94-.04,4.91v.61c0,1.08.02,2.18.08,3.26.04.8.13,1.65.15,1.8-.27-.04-.53-.06-.8-.06s-.61.02-.89.06c0-.04-.02-.3-.02-.47Z"/><path d="M328.81,81.59c0,.38-.02.72-.02.85s.02.23.13.23c.06,0,.13-.08.19-.23.3-.59.97-1.63,2.9-1.63,2.18,0,3.15,1.46,3.15,3.58v2.5c0,1.67.02,3.58.04,4.72-.19-.04-.51-.06-.8-.06-.32,0-.68.02-.89.06.02-.93.04-2.31.04-3.64,0-1.25-.02-2.14-.02-2.94-.02-1.44-.28-2.81-1.91-2.81-.61,0-1.25.21-1.69.66-.7.68-1.02,1.5-1.02,2.94,0,.44.02,1.06.02,1.74,0,1.4.04,3.05.04,4.06-.3-.04-.59-.06-.89-.06-.27,0-.57.02-.8.06.02-.87.04-4.02.04-5v-.61c0-1.08-.02-2.18-.08-3.26-.04-.8-.13-1.57-.15-1.71.27.04.53.06.8.06s.61-.02.89-.06c0,.04.02.4.02.57Z"/><path d="M346.63,91.6c-.25-.04-.55-.06-.85-.06s-.57.02-.87.06c0-.04-.02-.3-.02-.47,0-.38.02-.8.02-.93s-.02-.23-.13-.23c-.06,0-.13.06-.19.21-.57,1.16-1.38,1.63-2.84,1.63-2.54,0-3.87-1.86-3.87-5.42,0-2.92.93-5.59,3.87-5.59,1.1,0,2.29.32,2.79,1.5.13.3.17.44.28.44.04,0,.08-.04.08-.13,0-.3-.08-.93-.08-1.52l-.04-4.51c.28.04.59.06.83.06.19,0,.55-.02.87-.06-.02,1.5-.04,3.53-.04,5.74s0,4.49.02,6.31c0,.66.06,2.09.17,2.96ZM344.68,88.28c.11-.4.15-1.23.15-2.1s-.04-1.54-.13-1.84c-.32-1.21-1.29-2.14-2.48-2.14-1.9,0-2.69,1.18-2.69,4.17,0,2.67.68,4.04,2.56,4.04,1.33,0,2.24-.76,2.58-2.14Z"/><path d="M353.69,91.82c-2.84,0-4.32-2.03-4.32-5.33,0-3.66,1.67-5.67,4.38-5.67,2.37,0,3.85,1.59,3.85,5.16,0,.19-.02.4-.02.61-.59-.04-1.97-.08-3.41-.08h-2.84c-.32,0-.38.06-.38.36v.15c0,2.2,1.06,3.41,2.81,3.41,1.5,0,2.07-.66,2.33-1.95.32.04.7.08,1.04.08.17,0,.38-.02.53-.04-.34,2.12-1.69,3.3-3.98,3.3ZM353.67,82.21c-1.48,0-2.39,1.02-2.65,2.65-.02.08-.02.17-.02.23,0,.25.04.28.47.28.38,0,.91.02,1.38.02.78,0,1.69-.02,2.58-.08.51-.04.51-.06.51-.47,0-1.08-.47-2.62-2.26-2.62Z"/><path d="M363.17,81.47c.45-.47,1-.66,1.76-.66.19,0,.3.02.34.02.02.19.04.53.04.87s-.02.74-.04.95c-.19-.04-.32-.06-.68-.06-.89,0-1.76.51-2.16,1.82-.17.57-.25,1.27-.25,2.05,0,1.67.06,3.3.08,5.14-.28-.04-.64-.06-.89-.06s-.53.02-.8.06c.02-1.25.02-3.34.02-5.14,0-1.12,0-2.22-.04-3.45-.04-.8-.13-1.65-.19-1.99.3.04.55.06.8.06.21,0,.51-.02.76-.06.04.19.11.74.11,1.12,0,.27-.02.49-.02.59,0,.13.02.23.13.23.04,0,.08-.04.13-.11.11-.15.46-.93.91-1.4Z"/><path d="M366.87,86.29c0-3.51,1.48-5.48,3.92-5.48,1.46,0,2.2.49,2.73,1.67.06.15.11.19.17.19s.11-.04.11-.13c0-.3-.08-1.27-.08-1.52.28.04.57.06.87.06s.57-.02.85-.06c-.06,1.82-.13,3.81-.13,5.44,0,1.8.02,3.7.02,5.5,0,2.82-1.69,3.77-4.23,3.77-2.77,0-3.62-1.16-3.62-2.75.28.04.59.06.91.06.28,0,.55-.02.78-.06,0,.85.57,1.33,2.03,1.33s2.56-.83,2.56-2.41v-.63c0-.55.06-1.1.06-1.38,0-.08-.02-.11-.06-.11-.11,0-.15.13-.28.42-.47,1.1-1.59,1.5-2.6,1.5-2.52-.06-4-1.88-4-5.42ZM373.54,84.26c-.38-1.25-1.25-2.05-2.41-2.05-2.01,0-2.62,1.74-2.62,3.96,0,3.17.91,4.17,2.71,4.17,1.16,0,2.01-.78,2.37-1.99.04-.17.13-1.06.13-2.05,0-.78-.04-1.59-.17-2.03Z"/><path d="M381.45,81.47c.45-.47,1-.66,1.76-.66.19,0,.3.02.34.02.02.19.04.53.04.87s-.02.74-.04.95c-.19-.04-.32-.06-.68-.06-.89,0-1.76.51-2.16,1.82-.17.57-.25,1.27-.25,2.05,0,1.67.06,3.3.08,5.14-.28-.04-.64-.06-.89-.06s-.53.02-.8.06c.02-1.25.02-3.34.02-5.14,0-1.12,0-2.22-.04-3.45-.04-.8-.13-1.65-.19-1.99.3.04.55.06.8.06.21,0,.51-.02.76-.06.04.19.11.74.11,1.12,0,.27-.02.49-.02.59,0,.13.02.23.13.23.04,0,.08-.04.13-.11.11-.15.46-.93.91-1.4Z"/><path d="M393.05,91.56c-.42,0-1,.04-1.35.08-.02-.17-.06-.59-.06-1.02v-.36c0-.13-.04-.21-.11-.21-.08,0-.15.06-.25.28-.53,1.16-1.65,1.48-2.77,1.48-2.18,0-3.34-1.14-3.34-3.03,0-3.17,2.79-3.37,4.97-3.54l.55-.04c.57-.04.78-.25.78-.78v-.04c0-1.61-.68-2.18-2.16-2.18-1.02,0-1.63.21-1.93.61-.19.25-.25.55-.25.87,0,.25.04.44.04.53-.25-.04-.57-.06-.8-.06-.25,0-.49.02-.76.06-.02-.13-.04-.34-.04-.59,0-1.93,1.71-2.82,3.75-2.82,1.29,0,2.81.34,3.43,1.69.3.66.32,1.23.32,1.93,0,1.29-.02,2.98-.02,3.94,0,1.14.13,2.24.3,3.2h-.28ZM388.46,86.67c-.97.21-1.74.61-1.74,1.93s.8,1.86,1.93,1.86c1.31,0,2.26-.53,2.65-1.95.08-.34.13-.74.15-1.16.02-.4.02-.7.02-.89v-.08c0-.06-.02-.15-.11-.15s-.13.04-.4.11c-.25.06-.68.11-1.12.15-.42.04-.97.11-1.38.19Z"/><path d="M404.62,91.6c-.25-.04-.55-.06-.85-.06s-.57.02-.87.06c0-.04-.02-.3-.02-.47,0-.38.02-.8.02-.93s-.02-.23-.13-.23c-.06,0-.13.06-.19.21-.57,1.16-1.38,1.63-2.84,1.63-2.54,0-3.87-1.86-3.87-5.42,0-2.92.93-5.59,3.87-5.59,1.1,0,2.29.32,2.79,1.5.13.3.17.44.28.44.04,0,.08-.04.08-.13,0-.3-.08-.93-.08-1.52l-.04-4.51c.28.04.59.06.83.06.19,0,.55-.02.87-.06-.02,1.5-.04,3.53-.04,5.74s0,4.49.02,6.31c0,.66.06,2.09.17,2.96ZM402.68,88.28c.11-.4.15-1.23.15-2.1s-.04-1.54-.13-1.84c-.32-1.21-1.29-2.14-2.48-2.14-1.9,0-2.69,1.18-2.69,4.17,0,2.67.68,4.04,2.56,4.04,1.33,0,2.24-.76,2.58-2.14Z"/><path d="M414.17,91.14c0-.38.02-.8.02-.93s-.02-.25-.13-.25c-.06,0-.13.08-.19.23-.3.59-.97,1.63-2.9,1.63-2.18,0-3.15-1.46-3.15-3.58v-2.58c0-1.67-.02-3.49-.04-4.63.19.04.51.06.8.06.32,0,.68-.02.89-.06-.02.93-.04,2.22-.04,3.56,0,1.25.02,2.22.02,3.03.02,1.44.28,2.81,1.91,2.81.61,0,1.25-.21,1.69-.66.7-.68,1.02-1.61,1.02-3.05,0-.44-.02-1.04-.02-1.71,0-1.4-.04-2.96-.04-3.98.3.04.59.06.89.06.28,0,.57-.02.8-.06-.02.87-.04,3.94-.04,4.91v.61c0,1.08.02,2.18.08,3.26.04.8.13,1.65.15,1.8-.27-.04-.53-.06-.8-.06s-.61.02-.89.06c0-.04-.02-.3-.02-.47Z"/><path d="M426.48,91.56c-.42,0-1,.04-1.35.08-.02-.17-.06-.59-.06-1.02v-.36c0-.13-.04-.21-.11-.21-.08,0-.15.06-.25.28-.53,1.16-1.65,1.48-2.77,1.48-2.18,0-3.34-1.14-3.34-3.03,0-3.17,2.79-3.37,4.97-3.54l.55-.04c.57-.04.78-.25.78-.78v-.04c0-1.61-.68-2.18-2.16-2.18-1.02,0-1.63.21-1.93.61-.19.25-.25.55-.25.87,0,.25.04.44.04.53-.25-.04-.57-.06-.8-.06-.25,0-.49.02-.76.06-.02-.13-.04-.34-.04-.59,0-1.93,1.71-2.82,3.75-2.82,1.29,0,2.81.34,3.43,1.69.3.66.32,1.23.32,1.93,0,1.29-.02,2.98-.02,3.94,0,1.14.13,2.24.3,3.2h-.28ZM421.89,86.67c-.97.21-1.74.61-1.74,1.93s.8,1.86,1.93,1.86c1.31,0,2.26-.53,2.65-1.95.08-.34.13-.74.15-1.16.02-.4.02-.7.02-.89v-.08c0-.06-.02-.15-.11-.15s-.13.04-.4.11c-.25.06-.68.11-1.12.15-.42.04-.97.11-1.38.19Z"/><path d="M434.16,91.54c-.74.21-1.06.28-1.67.28-1.8,0-2.69-.7-2.69-2.79v-.19c0-1.82,0-3.64.06-5.52,0-.3.02-.55.02-.68,0-.15-.04-.23-.21-.23-.27,0-.68.04-1.18.04.02-.19.02-.3.02-.4s0-.21-.02-.38c1.12-.49,1.52-1.18,1.84-2.96.21-.04.44-.06.66-.06.15,0,.32,0,.47.02-.02.76-.04,1.5-.04,2.2,0,.19.08.21.21.21h.11c.76,0,1.52-.02,2.29-.04-.02.21-.04.44-.04.7s.02.51.04.72c-.72-.02-1.46-.04-2.24-.04-.32,0-.36.04-.36.49-.02.78-.02,1.74-.02,2.73,0,1.12,0,2.24.02,3,.02,1.29.13,1.8,1.29,1.8.46,0,.87-.02,1.46-.21.02.19.04.44.04.72,0,.23-.02.4-.04.61Z"/><path d="M440.04,91.82c-2.84,0-4.32-2.03-4.32-5.33,0-3.66,1.67-5.67,4.38-5.67,2.37,0,3.85,1.59,3.85,5.16,0,.19-.02.4-.02.61-.59-.04-1.97-.08-3.41-.08h-2.84c-.32,0-.38.06-.38.36v.15c0,2.2,1.06,3.41,2.81,3.41,1.5,0,2.07-.66,2.33-1.95.32.04.7.08,1.04.08.17,0,.38-.02.53-.04-.34,2.12-1.69,3.3-3.98,3.3ZM440.02,82.21c-1.48,0-2.39,1.02-2.65,2.65-.02.08-.02.17-.02.23,0,.25.04.28.47.28.38,0,.91.02,1.38.02.78,0,1.69-.02,2.58-.08.51-.04.51-.06.51-.47,0-1.08-.47-2.62-2.26-2.62Z"/><path d="M457.78,91.82c-2.26,0-3.85-1.02-3.85-3.28v-.15c.23.04.57.06.83.06s.55-.02.8-.06c.04,1.4.66,2.05,2.22,2.05,1.33,0,2.31-.53,2.31-1.65,0-1.25-1.23-1.54-2.54-1.88l-.32-.08c-1.5-.4-3.03-.91-3.03-2.9,0-1.76,1.46-3.11,3.58-3.11,1.71,0,3.24.74,3.53,2.56.02.19.04.4.04.72-.19-.02-.49-.04-.7-.04-.3,0-.57.02-.83.06,0-.17-.02-.34-.04-.49-.21-1.1-.99-1.46-2.01-1.46-1.55,0-2.05.93-2.05,1.61,0,.87.25,1.23,2.22,1.76l.32.08c1.57.42,3.37.87,3.37,3.05,0,1.95-1.44,3.15-3.85,3.15Z"/><path d="M468.83,91.54c-.74.21-1.06.28-1.67.28-1.8,0-2.69-.7-2.69-2.79v-.19c0-1.82,0-3.64.06-5.52,0-.3.02-.55.02-.68,0-.15-.04-.23-.21-.23-.27,0-.68.04-1.18.04.02-.19.02-.3.02-.4s0-.21-.02-.38c1.12-.49,1.52-1.18,1.84-2.96.21-.04.44-.06.66-.06.15,0,.32,0,.47.02-.02.76-.04,1.5-.04,2.2,0,.19.08.21.21.21h.11c.76,0,1.52-.02,2.29-.04-.02.21-.04.44-.04.7s.02.51.04.72c-.72-.02-1.46-.04-2.24-.04-.32,0-.36.04-.36.49-.02.78-.02,1.74-.02,2.73,0,1.12,0,2.24.02,3,.02,1.29.13,1.8,1.29,1.8.47,0,.87-.02,1.46-.21.02.19.04.44.04.72,0,.23-.02.4-.04.61Z"/><path d="M477.19,91.14c0-.38.02-.8.02-.93s-.02-.25-.13-.25c-.06,0-.13.08-.19.23-.3.59-.97,1.63-2.9,1.63-2.18,0-3.15-1.46-3.15-3.58v-2.58c0-1.67-.02-3.49-.04-4.63.19.04.51.06.8.06.32,0,.68-.02.89-.06-.02.93-.04,2.22-.04,3.56,0,1.25.02,2.22.02,3.03.02,1.44.28,2.81,1.91,2.81.61,0,1.25-.21,1.69-.66.7-.68,1.02-1.61,1.02-3.05,0-.44-.02-1.04-.02-1.71,0-1.4-.04-2.96-.04-3.98.3.04.59.06.89.06.28,0,.57-.02.8-.06-.02.87-.04,3.94-.04,4.91v.61c0,1.08.02,2.18.08,3.26.04.8.13,1.65.15,1.8-.27-.04-.53-.06-.8-.06s-.61.02-.89.06c0-.04-.02-.3-.02-.47Z"/><path d="M490.35,91.6c-.25-.04-.55-.06-.85-.06s-.57.02-.87.06c0-.04-.02-.3-.02-.47,0-.38.02-.8.02-.93s-.02-.23-.13-.23c-.06,0-.13.06-.19.21-.57,1.16-1.38,1.63-2.84,1.63-2.54,0-3.87-1.86-3.87-5.42,0-2.92.93-5.59,3.87-5.59,1.1,0,2.29.32,2.79,1.5.13.3.17.44.28.44.04,0,.08-.04.08-.13,0-.3-.08-.93-.08-1.52l-.04-4.51c.28.04.59.06.83.06.19,0,.55-.02.87-.06-.02,1.5-.04,3.53-.04,5.74s0,4.49.02,6.31c0,.66.06,2.09.17,2.96ZM488.4,88.28c.11-.4.15-1.23.15-2.1s-.04-1.54-.13-1.84c-.32-1.21-1.29-2.14-2.48-2.14-1.9,0-2.69,1.18-2.69,4.17,0,2.67.68,4.04,2.56,4.04,1.33,0,2.24-.76,2.58-2.14Z"/><path d="M497.42,91.82c-2.84,0-4.32-2.03-4.32-5.33,0-3.66,1.67-5.67,4.38-5.67,2.37,0,3.85,1.59,3.85,5.16,0,.19-.02.4-.02.61-.59-.04-1.97-.08-3.41-.08h-2.84c-.32,0-.38.06-.38.36v.15c0,2.2,1.06,3.41,2.81,3.41,1.5,0,2.07-.66,2.33-1.95.32.04.7.08,1.04.08.17,0,.38-.02.53-.04-.34,2.12-1.69,3.3-3.98,3.3ZM497.39,82.21c-1.48,0-2.39,1.02-2.65,2.65-.02.08-.02.17-.02.23,0,.25.04.28.47.28.38,0,.91.02,1.38.02.78,0,1.69-.02,2.58-.08.51-.04.51-.06.51-.47,0-1.08-.47-2.62-2.26-2.62Z"/><path d="M505.82,81.59c0,.38-.02.72-.02.85s.02.23.13.23c.06,0,.13-.08.19-.23.3-.59.97-1.63,2.9-1.63,2.18,0,3.15,1.46,3.15,3.58v2.5c0,1.67.02,3.58.04,4.72-.19-.04-.51-.06-.8-.06-.32,0-.68.02-.89.06.02-.93.04-2.31.04-3.64,0-1.25-.02-2.14-.02-2.94-.02-1.44-.28-2.81-1.91-2.81-.61,0-1.25.21-1.69.66-.7.68-1.02,1.5-1.02,2.94,0,.44.02,1.06.02,1.74,0,1.4.04,3.05.04,4.06-.3-.04-.59-.06-.89-.06-.27,0-.57.02-.8.06.02-.87.04-4.02.04-5v-.61c0-1.08-.02-2.18-.08-3.26-.04-.8-.13-1.57-.15-1.71.27.04.53.06.8.06s.61-.02.89-.06c0,.04.02.4.02.57Z"/><path d="M519.95,91.54c-.74.21-1.06.28-1.67.28-1.8,0-2.69-.7-2.69-2.79v-.19c0-1.82,0-3.64.06-5.52,0-.3.02-.55.02-.68,0-.15-.04-.23-.21-.23-.27,0-.68.04-1.18.04.02-.19.02-.3.02-.4s0-.21-.02-.38c1.12-.49,1.52-1.18,1.84-2.96.21-.04.44-.06.66-.06.15,0,.32,0,.47.02-.02.76-.04,1.5-.04,2.2,0,.19.08.21.21.21h.11c.76,0,1.52-.02,2.29-.04-.02.21-.04.44-.04.7s.02.51.04.72c-.72-.02-1.46-.04-2.24-.04-.32,0-.36.04-.36.49-.02.78-.02,1.74-.02,2.73,0,1.12,0,2.24.02,3,.02,1.29.13,1.8,1.29,1.8.46,0,.87-.02,1.46-.21.02.19.04.44.04.72,0,.23-.02.4-.04.61Z"/><path d="M537.29,91.56c-.42,0-1,.04-1.35.08-.02-.17-.06-.59-.06-1.02v-.36c0-.13-.04-.21-.11-.21-.08,0-.15.06-.25.28-.53,1.16-1.65,1.48-2.77,1.48-2.18,0-3.34-1.14-3.34-3.03,0-3.17,2.79-3.37,4.97-3.54l.55-.04c.57-.04.78-.25.78-.78v-.04c0-1.61-.68-2.18-2.16-2.18-1.02,0-1.63.21-1.93.61-.19.25-.25.55-.25.87,0,.25.04.44.04.53-.25-.04-.57-.06-.8-.06-.25,0-.49.02-.76.06-.02-.13-.04-.34-.04-.59,0-1.93,1.71-2.82,3.75-2.82,1.29,0,2.81.34,3.43,1.69.3.66.32,1.23.32,1.93,0,1.29-.02,2.98-.02,3.94,0,1.14.13,2.24.3,3.2h-.28ZM532.7,86.67c-.97.21-1.74.61-1.74,1.93s.8,1.86,1.93,1.86c1.31,0,2.26-.53,2.65-1.95.08-.34.13-.74.15-1.16.02-.4.02-.7.02-.89v-.08c0-.06-.02-.15-.11-.15s-.13.04-.4.11c-.25.06-.68.11-1.12.15-.42.04-.97.11-1.38.19Z"/><path d="M544.97,91.54c-.74.21-1.06.28-1.67.28-1.8,0-2.69-.7-2.69-2.79v-.19c0-1.82,0-3.64.06-5.52,0-.3.02-.55.02-.68,0-.15-.04-.23-.21-.23-.27,0-.68.04-1.18.04.02-.19.02-.3.02-.4s0-.21-.02-.38c1.12-.49,1.52-1.18,1.84-2.96.21-.04.44-.06.66-.06.15,0,.32,0,.47.02-.02.76-.04,1.5-.04,2.2,0,.19.08.21.21.21h.11c.76,0,1.52-.02,2.29-.04-.02.21-.04.44-.04.7s.02.51.04.72c-.72-.02-1.46-.04-2.24-.04-.32,0-.36.04-.36.49-.02.78-.02,1.74-.02,2.73,0,1.12,0,2.24.02,3,.02,1.29.13,1.8,1.29,1.8.47,0,.87-.02,1.46-.21.02.19.04.44.04.72,0,.23-.02.4-.04.61Z"/><path d="M559.48,91.54c-.74.21-1.06.28-1.67.28-1.8,0-2.69-.7-2.69-2.79v-.19c0-1.82,0-3.64.06-5.52,0-.3.02-.55.02-.68,0-.15-.04-.23-.21-.23-.27,0-.68.04-1.18.04.02-.19.02-.3.02-.4s0-.21-.02-.38c1.12-.49,1.52-1.18,1.84-2.96.21-.04.44-.06.66-.06.15,0,.32,0,.47.02-.02.76-.04,1.5-.04,2.2,0,.19.08.21.21.21h.11c.76,0,1.52-.02,2.29-.04-.02.21-.04.44-.04.7s.02.51.04.72c-.72-.02-1.46-.04-2.24-.04-.32,0-.36.04-.36.49-.02.78-.02,1.74-.02,2.73,0,1.12,0,2.24.02,3,.02,1.29.13,1.8,1.29,1.8.47,0,.87-.02,1.46-.21.02.19.04.44.04.72,0,.23-.02.4-.04.61Z"/><path d="M563.16,82.44c0,.13.02.23.13.23.06,0,.13-.08.19-.23.3-.59.97-1.63,2.9-1.63,2.18,0,3.15,1.46,3.15,3.58v2.6c0,1.67.02,3.47.04,4.61-.19-.04-.51-.06-.8-.06-.32,0-.68.02-.89.06.02-.93.04-2.31.04-3.64,0-1.25-.02-2.14-.02-2.94-.02-1.44-.28-2.81-1.9-2.81-.61,0-1.25.21-1.69.66-.7.68-1.02,1.61-1.02,3.05,0,.44.02.95.02,1.63,0,1.4.04,3.05.04,4.06-.3-.04-.59-.06-.89-.06-.27,0-.57.02-.8.06.02-.87.04-4.02.04-5v-1.9c0-2.71-.02-5.59-.06-8.11.28.04.53.06.78.06.28,0,.53-.02.85-.06l-.02,4.53c0,.61-.08,1.16-.08,1.31Z"/><path d="M576.57,91.82c-2.84,0-4.32-2.03-4.32-5.33,0-3.66,1.67-5.67,4.38-5.67,2.37,0,3.85,1.59,3.85,5.16,0,.19-.02.4-.02.61-.59-.04-1.97-.08-3.41-.08h-2.84c-.32,0-.38.06-.38.36v.15c0,2.2,1.06,3.41,2.81,3.41,1.5,0,2.07-.66,2.33-1.95.32.04.7.08,1.04.08.17,0,.38-.02.53-.04-.34,2.12-1.69,3.3-3.98,3.3ZM576.55,82.21c-1.48,0-2.39,1.02-2.65,2.65-.02.08-.02.17-.02.23,0,.25.04.28.47.28.38,0,.91.02,1.38.02.78,0,1.69-.02,2.58-.08.51-.04.51-.06.51-.47,0-1.08-.47-2.62-2.26-2.62Z"/><path d="M6.05,117.27c-3.56,0-5.12-1.84-5.12-5.1v-.11c.42.06.93.11,1.44.11.55,0,1.1-.04,1.55-.11,0,1.57.57,2.79,2.39,2.79,1.46,0,1.88-.76,1.88-1.63,0-.68-.32-1.14-.83-1.52-1.12-.83-2.84-1.12-4.15-1.9-1.35-.8-2.05-1.93-2.05-3.56,0-2.01,1.38-4.23,4.95-4.23,2.73,0,4.87,1.44,4.87,4.06,0,.21-.02.47-.04.7-.36-.04-.93-.11-1.4-.11-.57,0-1.02.04-1.48.11-.06-1.27-.44-2.33-1.99-2.33-1.4,0-1.9.72-1.9,1.52s.53,1.44,1.74,1.88c1.65.61,3.32,1.25,4.38,2.37.61.66.97,1.48.97,2.67,0,2.92-2.16,4.38-5.21,4.38Z"/><path d="M13.61,104.81c.04-.47.06-.93.06-1.4s-.02-.93-.06-1.42c.51.06,1.12.08,1.54.08s1.04-.02,1.54-.08c-.04.49-.06.93-.06,1.42s.02.93.06,1.4c-.59-.06-1.14-.08-1.54-.08s-.95.02-1.54.08ZM15.23,116.91c-.53,0-1.08.02-1.63.08.04-1.44.06-3.39.06-5.35,0-1.82,0-3.7-.06-5.25.57.08,1.1.11,1.59.11.53,0,1.02-.04,1.5-.11-.04,1.59-.08,3.49-.08,5.33,0,1.95.04,3.85.08,5.27-.51-.06-.97-.08-1.46-.08Z"/><path d="M22.41,107.24c0,.32-.04.61-.04.7,0,.11.06.13.11.13.06,0,.11-.11.23-.38.21-.46.59-.87,1.12-1.14.53-.28,1.12-.38,1.74-.38,1.78,0,2.81,1.16,2.81,2.98v.15c0,1-.02,2.39-.02,3.79s0,2.86.04,3.92c-.49-.06-.95-.08-1.48-.08s-1.02.02-1.61.08c.02-1.02.02-2.35.02-3.72,0-1.29,0-2.58-.02-3.47-.02-.78-.32-1.33-1.12-1.33-.66,0-1.04.3-1.31.74-.21.34-.3.74-.32,1.54-.02.55-.02.91-.02,1.71,0,1.57.04,3.34.04,4.53-.47-.08-.95-.08-1.46-.08s-1.04.02-1.63.08c.02-.91.04-2.01.04-3.2,0-1.93-.02-4.04-.02-4.89-.06-1.23-.13-1.88-.23-2.5.55.06,1.06.08,1.61.08s.95-.04,1.4-.11c.08.3.13.59.13.85Z"/><path d="M40.01,107.73c-.04,1.42-.06,3.11-.06,4.93,0,.44.02,3.64.02,4.08,0,3.11-1.42,4.4-4.72,4.4-2.9,0-4.04-.93-4.04-2.9.4.06.91.11,1.44.11.47,0,1.14-.02,1.54-.11,0,.68.47,1.04,1.31,1.04.97,0,1.46-.51,1.48-1.69,0-.25.02-1.04.04-1.21.02-.17.06-.3.06-.4,0-.04-.02-.11-.08-.11-.13,0-.25.34-.51.55-.47.44-1.21.61-1.99.61-2.67,0-3.83-2.12-3.83-5.52,0-3,1.23-5.35,3.85-5.35,1.08,0,1.8.44,2.14.89.19.23.3.51.36.7.02.06.06.13.13.13.08,0,.13-.08.13-.21.02-.36.04-.97.11-1.27.32.06.93.08,1.29.08.51,0,1.06-.04,1.48-.08-.08.42-.13.89-.15,1.33ZM36.97,109.93c-.13-.91-.57-1.65-1.63-1.65-1.19,0-1.59,1.04-1.59,3.3,0,2.71.63,3.41,1.67,3.41.83,0,1.48-.68,1.54-1.5.04-.46.06-.97.06-1.76,0-.61,0-1.35-.06-1.8Z"/><path d="M50.32,116.95c-.59,0-1.33.08-1.82.17-.11-.38-.15-.78-.15-1.1,0-.15-.02-.21-.11-.21-.11,0-.17.28-.38.53-.49.63-1.46.91-2.29.91-2.01,0-3.22-1.21-3.22-3.17,0-2.58,2.16-3.15,4.23-3.37l1.02-.11c.34-.04.47-.13.55-.3.06-.15.08-.34.08-.57v-.15c0-1.06-.42-1.48-1.31-1.48-1.06,0-1.46.49-1.46,1.48-.32-.04-.61-.06-.93-.06-.55,0-1.1.06-1.69.19,0-.19-.02-.4-.02-.49,0-2.03,1.71-3.07,4.23-3.07,2.14,0,4.06.8,4.17,2.69.04.8.06,1.61.06,2.56,0,1.08,0,2.22.02,2.9.02,1.16.15,2.03.32,2.71-.36-.02-.8-.06-1.31-.06ZM48.18,111.98s-.08,0-.38.04l-.27.04c-.38.06-.7.08-.97.17-.74.21-1.23.63-1.23,1.63,0,.78.55,1.29,1.31,1.29.91,0,1.46-.38,1.57-1.23.04-.36.08-.76.08-1.4,0-.11.02-.32.02-.42,0-.08-.04-.13-.13-.13Z"/><path d="M59.63,117.25c-.76,0-1.65-.25-2.18-.87-.11-.13-.19-.34-.28-.42-.02-.02-.04-.02-.06-.02-.04,0-.06.02-.06.06,0,.19.08.74.11,1.46l.06,3.51c-.47-.06-.91-.08-1.42-.08s-1.08.02-1.69.08c.06-1.52.06-3.58.06-5.67s-.02-4.8-.06-6.71c-.02-.7-.11-1.65-.25-2.2.51.02,1.02.06,1.48.06.57,0,1.16-.04,1.65-.08.04.19.04.38.04.57,0,.21-.02.42-.02.63,0,.06.02.13.06.13.11,0,.23-.28.3-.36.47-.61,1.19-1.19,2.5-1.19,2.37,0,3.62,1.9,3.62,5.23s-.93,5.86-3.85,5.86ZM58.84,108.28c-.53,0-.93.25-1.23.59-.23.25-.42.59-.44,1.06-.04.85-.06,2.05-.06,3.03,0,.32.02.63.04.91.02.23.08.42.21.59.32.42.76.68,1.33.68,1.27,0,1.67-1.12,1.67-3.41,0-2.41-.4-3.45-1.52-3.45Z"/><path d="M65.3,111.68c0-3.47,1.54-5.52,4.66-5.52s4.66,2.05,4.66,5.52-1.54,5.57-4.66,5.57-4.66-2.09-4.66-5.57ZM68.37,111.68c0,2.62.47,3.45,1.59,3.45s1.59-.83,1.59-3.45-.47-3.41-1.59-3.41-1.59.78-1.59,3.41Z"/><path d="M82.82,109.33c-.32-.15-.7-.32-1.14-.32-.95,0-1.61.61-1.74,1.65-.11.89-.13,1.57-.13,2.39,0,1.25.02,2.41.08,3.94-.51-.06-1.02-.08-1.5-.08s-.97.02-1.5.08c.04-1.25.06-3.03.06-4.66,0-1.95-.04-3.81-.06-4.3-.02-.44-.11-1.25-.23-1.65.59.06,1.16.11,1.71.11.42,0,.87-.02,1.31-.08.06.3.11.7.11,1.02,0,.21-.04.49-.04.66,0,.08.02.13.08.13.08,0,.11-.17.25-.47.21-.4.49-.85.91-1.14.42-.3.95-.44,1.44-.44.19,0,.34.02.44.04.02.36.04,1.16.04,1.5,0,.49-.02,1.16-.11,1.63Z"/><path d="M92.21,116.19c-.72.68-1.74,1.06-3.22,1.06-3.34,0-4.8-2.14-4.8-5.31,0-3.47,1.69-5.78,4.83-5.78s4.32,2.41,4.32,5.04c0,.38-.02.76-.06,1.14-.89-.04-1.99-.13-3.37-.13-.76,0-1.88.02-2.39.02-.3,0-.44.02-.44.34,0,1.31.63,2.56,1.95,2.56,1.06,0,1.55-.68,1.74-1.52.87.15,1.71.19,2.65.19-.11.89-.66,1.88-1.19,2.39ZM88.87,108.21c-1.1,0-1.8.89-1.8,2.18,0,.17.08.21.21.21.38,0,.83-.02,1.35-.02s1.06-.04,1.54-.08c.34-.02.36-.11.36-.42,0-1.18-.7-1.86-1.67-1.86Z"/><path d="M105.43,117.29c-3.41,0-5.02-1.67-5.02-4.76v-.15c0-1.82.06-3.87.06-5.84,0-1.54-.04-3.05-.06-4.23.59.06,1.14.08,1.69.08.51,0,1.02-.02,1.57-.08-.06,1.61-.06,3.94-.06,6.18,0,1.48,0,2.9.02,4.04.02,1.38.49,2.14,1.88,2.14s1.8-.74,1.84-2.22c.04-1.27.04-2.71.04-4.23,0-2.16-.02-4.38-.08-5.9.51.04,1.06.08,1.59.08s1.12-.02,1.65-.08c-.04,1.16-.04,2.52-.04,3.94,0,2.03.04,4.15.04,6.09v.11c0,3.32-1.86,4.85-5.12,4.85Z"/><path d="M116.28,107.24c0,.32-.04.61-.04.7,0,.11.06.13.11.13.06,0,.11-.11.23-.38.21-.46.59-.87,1.12-1.14.53-.28,1.12-.38,1.74-.38,1.78,0,2.81,1.16,2.81,2.98v.15c0,1-.02,2.39-.02,3.79s0,2.86.04,3.92c-.49-.06-.95-.08-1.48-.08s-1.02.02-1.61.08c.02-1.02.02-2.35.02-3.72,0-1.29,0-2.58-.02-3.47-.02-.78-.32-1.33-1.12-1.33-.66,0-1.04.3-1.31.74-.21.34-.3.74-.32,1.54-.02.55-.02.91-.02,1.71,0,1.57.04,3.34.04,4.53-.47-.08-.95-.08-1.46-.08s-1.04.02-1.63.08c.02-.91.04-2.01.04-3.2,0-1.93-.02-4.04-.02-4.89-.06-1.23-.13-1.88-.23-2.5.55.06,1.06.08,1.61.08s.95-.04,1.4-.11c.08.3.13.59.13.85Z"/><path d="M124.98,104.81c.04-.47.06-.93.06-1.4s-.02-.93-.06-1.42c.51.06,1.12.08,1.54.08s1.04-.02,1.54-.08c-.04.49-.06.93-.06,1.42s.02.93.06,1.4c-.59-.06-1.14-.08-1.54-.08s-.95.02-1.54.08ZM126.61,116.91c-.53,0-1.08.02-1.63.08.04-1.44.06-3.39.06-5.35,0-1.82,0-3.7-.06-5.25.57.08,1.1.11,1.59.11.53,0,1.02-.04,1.5-.11-.04,1.59-.08,3.49-.08,5.33,0,1.95.04,3.85.08,5.27-.51-.06-.97-.08-1.46-.08Z"/><path d="M136.21,106.41c.47.06.99.08,1.46.08.42,0,.93-.04,1.46-.11-1.04,3.03-2.56,8.15-3.28,10.62-.38-.04-.95-.06-1.48-.06s-1.19.02-1.57.06c-.72-2.82-2.18-7.66-3.17-10.62.66.04,1.16.11,1.71.11s.99-.04,1.42-.08c.38,1.52.83,3.43,1.31,5.12.17.63.28,1.57.3,1.63.02.08.08.13.13.13.06,0,.11-.04.13-.15.02-.08.15-.97.34-1.61.42-1.5.8-3.32,1.25-5.12Z"/><path d="M148,116.19c-.72.68-1.74,1.06-3.22,1.06-3.34,0-4.8-2.14-4.8-5.31,0-3.47,1.69-5.78,4.83-5.78s4.32,2.41,4.32,5.04c0,.38-.02.76-.06,1.14-.89-.04-1.99-.13-3.37-.13-.76,0-1.88.02-2.39.02-.3,0-.44.02-.44.34,0,1.31.63,2.56,1.95,2.56,1.06,0,1.55-.68,1.74-1.52.87.15,1.71.19,2.65.19-.11.89-.66,1.88-1.19,2.39ZM144.66,108.21c-1.1,0-1.8.89-1.8,2.18,0,.17.08.21.21.21.38,0,.83-.02,1.35-.02s1.06-.04,1.54-.08c.34-.02.36-.11.36-.42,0-1.18-.7-1.86-1.67-1.86Z"/><path d="M157.35,109.33c-.32-.15-.7-.32-1.14-.32-.95,0-1.61.61-1.74,1.65-.11.89-.13,1.57-.13,2.39,0,1.25.02,2.41.08,3.94-.51-.06-1.02-.08-1.5-.08s-.97.02-1.5.08c.04-1.25.06-3.03.06-4.66,0-1.95-.04-3.81-.06-4.3-.02-.44-.11-1.25-.23-1.65.59.06,1.16.11,1.71.11.42,0,.87-.02,1.31-.08.06.3.11.7.11,1.02,0,.21-.04.49-.04.66,0,.08.02.13.08.13.08,0,.11-.17.25-.47.21-.4.49-.85.91-1.14.42-.3.95-.44,1.44-.44.19,0,.34.02.44.04.02.36.04,1.16.04,1.5,0,.49-.02,1.16-.11,1.63Z"/><path d="M162.98,117.31c-2.39,0-4.23-.85-4.25-3.49.42.06.89.11,1.29.11.44,0,.95-.04,1.4-.13,0,.13,0,.25.02.38.13.74.68,1.16,1.5,1.16,1,0,1.48-.47,1.48-1.08,0-.76-.61-.97-2.05-1.5l-.23-.08c-1.48-.53-3.17-1.16-3.17-3.28,0-1.69,1.1-3.3,3.92-3.3,2.33,0,4.11.91,4.11,3.41-.42-.06-.97-.11-1.4-.11-.38,0-.8.02-1.19.08-.02-.19-.06-.36-.11-.51-.17-.55-.61-.91-1.35-.91-.83,0-1.31.47-1.31,1.02,0,.76.89,1.1,1.9,1.44l.25.08c1.54.51,3.37,1.19,3.37,3.3,0,1.88-1.25,3.41-4.17,3.41Z"/><path d="M169.37,104.81c.04-.47.06-.93.06-1.4s-.02-.93-.06-1.42c.51.06,1.12.08,1.54.08s1.04-.02,1.54-.08c-.04.49-.06.93-.06,1.42s.02.93.06,1.4c-.59-.06-1.14-.08-1.54-.08s-.95.02-1.54.08ZM171,116.91c-.53,0-1.08.02-1.63.08.04-1.44.06-3.39.06-5.35,0-1.82,0-3.7-.06-5.25.57.08,1.1.11,1.59.11.53,0,1.02-.04,1.5-.11-.04,1.59-.08,3.49-.08,5.33,0,1.95.04,3.85.08,5.27-.51-.06-.97-.08-1.46-.08Z"/><path d="M181.11,116.76c-.89.46-1.82.49-2.54.49-1.84,0-2.88-.74-2.88-2.62v-.3c0-1.46.02-2.09.04-3.56,0-.46.06-.97.06-1.61v-.42c0-.21-.08-.25-.25-.25-.15,0-.36.02-.85.04l-.53.02c.02-.15.02-.47.02-.74,0-.21-.02-.4-.02-.51,1.06-.76,2.16-1.93,2.69-3.49.32-.04.63-.04.91-.04.38,0,.72.02,1.06.04-.04,1.12-.08,1.38-.08,2.2,0,.34.02.47.25.47h.3c.55,0,1.08-.04,1.82-.08-.02.23-.04.68-.04,1.12s.02.85.04,1.04c-.68-.02-1.35-.06-2.05-.06-.28,0-.32.02-.32.34,0,.68.02,1.44.02,2.18,0,.91.02,1.82.04,2.65.04,1.02.17,1.27,1.14,1.27.34,0,.74-.08,1.19-.28.04.32.06.7.06,1.06s-.02.7-.08,1.06Z"/><path d="M188.79,117.14c-.7,2.33-1.65,3.89-3.75,3.89-.55,0-1.16-.06-1.88-.23.06-.34.08-.76.08-1.14,0-.36-.02-.72-.08-1.19.49.17.91.23,1.29.23.87,0,1.38-.57,1.38-1.42,0-.55-.21-1.1-.36-1.65l-.15-.53c-.74-2.67-1.9-6.43-2.71-8.72.55.06,1.14.11,1.71.11.47,0,.99-.04,1.44-.11.47,2.07.95,4.21,1.42,5.91.06.25.11.57.17.87.02.08.06.13.13.13s.11-.04.13-.13c.06-.3.08-.61.28-1.29.4-1.38.89-3.81,1.29-5.48.38.06.93.11,1.33.11.51,0,.93-.04,1.57-.11-1.02,3.09-2.54,8.34-3.28,10.75Z"/><path d="M197.84,111.68c0-3.47,1.54-5.52,4.66-5.52s4.66,2.05,4.66,5.52-1.54,5.57-4.66,5.57-4.66-2.09-4.66-5.57ZM200.91,111.68c0,2.62.47,3.45,1.59,3.45s1.59-.83,1.59-3.45-.47-3.41-1.59-3.41-1.59.78-1.59,3.41Z"/><path d="M215.3,104.45c-.42-.11-.68-.17-.97-.17-.97,0-1.21.44-1.25,1.46,0,.17-.02.3-.02.51,0,.15.02.23.17.23.61,0,1.46-.04,1.93-.08-.04.4-.04.78-.04,1.12,0,.36,0,.68.04,1.04-.61-.02-1.21-.04-1.88-.04-.15,0-.21.06-.21.3,0,.61.11,7.64.11,8.19-.49-.06-.97-.08-1.48-.08s-1.02.02-1.57.08c.04-1.29.04-2.84.04-4.4,0-1.4,0-2.79-.02-3.92,0-.13-.06-.17-.19-.17-.49,0-.72,0-1.38.04.04-.38.06-.74.06-1.1s-.02-.72-.06-1.06c.72.06,1.06.08,1.33.08.11,0,.21-.06.21-.21,0-.08-.02-.8-.02-.85,0-1.18.21-1.99.72-2.56.55-.61,1.42-.91,2.56-.91.64,0,1.52.06,1.97.36.04.23.06.51.06.83,0,.44-.06.93-.11,1.31Z"/><path d="M228,104.87h-.27c-.25,0-.36.15-.36.38-.02.76-.02,1.5-.02,2.48,0,3.13,0,6.98.06,9.27-.59-.06-1.02-.08-1.61-.08-.51,0-1.19.04-1.65.08.06-2.35.06-6.14.06-9.31v-2.43c0-.23-.08-.38-.36-.38h-.32c-.85,0-1.69.02-2.73.06.06-.44.08-.83.08-1.25s-.02-.91-.08-1.38c1.8.06,3.45.08,5.21.08,1.54,0,3.2-.04,4.76-.08-.06.47-.08.93-.08,1.38s.02.83.08,1.25c-.91-.04-1.86-.06-2.77-.06Z"/><path d="M238.35,116.19c-.72.68-1.74,1.06-3.22,1.06-3.34,0-4.8-2.14-4.8-5.31,0-3.47,1.69-5.78,4.83-5.78s4.32,2.41,4.32,5.04c0,.38-.02.76-.06,1.14-.89-.04-1.99-.13-3.37-.13-.76,0-1.88.02-2.39.02-.3,0-.44.02-.44.34,0,1.31.63,2.56,1.95,2.56,1.06,0,1.55-.68,1.74-1.52.87.15,1.71.19,2.65.19-.11.89-.66,1.88-1.19,2.39ZM235.01,108.21c-1.1,0-1.8.89-1.8,2.18,0,.17.08.21.21.21.38,0,.83-.02,1.35-.02s1.06-.04,1.54-.08c.34-.02.36-.11.36-.42,0-1.18-.7-1.86-1.67-1.86Z"/><path d="M248.7,110.25c-.49,0-.95.02-1.48.08v-.27c0-.93-.32-1.78-1.25-1.78-1.21,0-1.57.91-1.57,3.51,0,2.37.49,3.34,1.54,3.34s1.35-.68,1.35-2.03c.38.04.8.08,1.35.08.51,0,.97-.04,1.38-.08.02.13.02.25.02.38,0,2.52-1.57,3.77-4.13,3.77-3.2,0-4.59-2.18-4.59-5.4,0-3.56,1.42-5.69,4.66-5.69,2.96,0,4.11,1.54,4.11,3.81v.36c-.51-.06-.95-.08-1.4-.08Z"/><path d="M259.83,116.91c-.53,0-1,.02-1.48.08.04-1.14.04-2.48.04-3.75,0-1.19,0-2.39-.02-3.24-.02-.74-.17-1.57-1.1-1.57-1.08,0-1.67.97-1.67,2.26,0,.7.04,3.34.08,6.29-.49-.06-.97-.08-1.46-.08-.53,0-1.04.02-1.63.08.06-2.41.08-5.12.08-7.75s-.02-5.25-.08-7.26c.51.04,1.04.08,1.57.08s1-.02,1.5-.08l-.06,3.85c-.02,1.1-.08,1.78-.08,2.03,0,.04.04.11.11.11.11,0,.15-.17.23-.34.3-.7,1.06-1.48,2.6-1.48,1.99,0,3.01,1.19,3.01,2.94v.17c0,.91-.04,2.37-.04,3.81s.02,2.9.04,3.92c-.57-.06-1.12-.08-1.63-.08Z"/><path d="M267.15,107.24c0,.32-.04.61-.04.7,0,.11.06.13.11.13.06,0,.11-.11.23-.38.21-.46.59-.87,1.12-1.14.53-.28,1.12-.38,1.74-.38,1.78,0,2.81,1.16,2.81,2.98v.15c0,1-.02,2.39-.02,3.79s0,2.86.04,3.92c-.49-.06-.95-.08-1.48-.08s-1.02.02-1.61.08c.02-1.02.02-2.35.02-3.72,0-1.29,0-2.58-.02-3.47-.02-.78-.32-1.33-1.12-1.33-.66,0-1.04.3-1.31.74-.21.34-.3.74-.32,1.54-.02.55-.02.91-.02,1.71,0,1.57.04,3.34.04,4.53-.47-.08-.95-.08-1.46-.08s-1.04.02-1.63.08c.02-.91.04-2.01.04-3.2,0-1.93-.02-4.04-.02-4.89-.06-1.23-.13-1.88-.23-2.5.55.06,1.06.08,1.61.08s.95-.04,1.4-.11c.08.3.13.59.13.85Z"/><path d="M275.4,111.68c0-3.47,1.54-5.52,4.66-5.52s4.66,2.05,4.66,5.52-1.54,5.57-4.66,5.57-4.66-2.09-4.66-5.57ZM278.47,111.68c0,2.62.47,3.45,1.59,3.45s1.59-.83,1.59-3.45-.47-3.41-1.59-3.41-1.59.78-1.59,3.41Z"/><path d="M288.6,116.91c-.51,0-1.02.02-1.63.08.04-1.95.08-4.49.08-7.15s-.04-5.57-.08-7.85c.55.06,1.1.08,1.61.08s1.1-.04,1.48-.08c-.04,2.41-.04,5.38-.04,8s0,5.08.04,7c-.44-.06-.97-.08-1.46-.08Z"/><path d="M292.35,111.68c0-3.47,1.54-5.52,4.66-5.52s4.66,2.05,4.66,5.52-1.55,5.57-4.66,5.57-4.66-2.09-4.66-5.57ZM295.42,111.68c0,2.62.47,3.45,1.59,3.45s1.59-.83,1.59-3.45-.47-3.41-1.59-3.41-1.59.78-1.59,3.41Z"/><path d="M312.83,107.73c-.04,1.42-.06,3.11-.06,4.93,0,.44.02,3.64.02,4.08,0,3.11-1.42,4.4-4.72,4.4-2.9,0-4.04-.93-4.04-2.9.4.06.91.11,1.44.11.47,0,1.14-.02,1.54-.11,0,.68.47,1.04,1.31,1.04.97,0,1.46-.51,1.48-1.69,0-.25.02-1.04.04-1.21.02-.17.06-.3.06-.4,0-.04-.02-.11-.08-.11-.13,0-.25.34-.51.55-.46.44-1.21.61-1.99.61-2.67,0-3.83-2.12-3.83-5.52,0-3,1.23-5.35,3.85-5.35,1.08,0,1.8.44,2.14.89.19.23.3.51.36.7.02.06.06.13.13.13.08,0,.13-.08.13-.21.02-.36.04-.97.11-1.27.32.06.93.08,1.29.08.51,0,1.06-.04,1.48-.08-.08.42-.13.89-.15,1.33ZM309.79,109.93c-.13-.91-.57-1.65-1.63-1.65-1.18,0-1.59,1.04-1.59,3.3,0,2.71.63,3.41,1.67,3.41.83,0,1.48-.68,1.54-1.5.04-.46.06-.97.06-1.76,0-.61,0-1.35-.06-1.8Z"/><path d="M320.77,117.14c-.7,2.33-1.65,3.89-3.75,3.89-.55,0-1.16-.06-1.88-.23.06-.34.08-.76.08-1.14,0-.36-.02-.72-.08-1.19.49.17.91.23,1.29.23.87,0,1.38-.57,1.38-1.42,0-.55-.21-1.1-.36-1.65l-.15-.53c-.74-2.67-1.9-6.43-2.71-8.72.55.06,1.14.11,1.71.11.46,0,.99-.04,1.44-.11.47,2.07.95,4.21,1.42,5.91.06.25.11.57.17.87.02.08.06.13.13.13s.11-.04.13-.13c.06-.3.08-.61.27-1.29.4-1.38.89-3.81,1.29-5.48.38.06.93.11,1.33.11.51,0,.93-.04,1.57-.11-1.02,3.09-2.54,8.34-3.28,10.75Z"/><path d="M337.77,116.95c-.59,0-1.33.08-1.82.17-.11-.38-.15-.78-.15-1.1,0-.15-.02-.21-.11-.21-.11,0-.17.28-.38.53-.49.63-1.46.91-2.29.91-2.01,0-3.22-1.21-3.22-3.17,0-2.58,2.16-3.15,4.23-3.37l1.02-.11c.34-.04.46-.13.55-.3.06-.15.08-.34.08-.57v-.15c0-1.06-.42-1.48-1.31-1.48-1.06,0-1.46.49-1.46,1.48-.32-.04-.61-.06-.93-.06-.55,0-1.1.06-1.69.19,0-.19-.02-.4-.02-.49,0-2.03,1.71-3.07,4.23-3.07,2.14,0,4.06.8,4.17,2.69.04.8.06,1.61.06,2.56,0,1.08,0,2.22.02,2.9.02,1.16.15,2.03.32,2.71-.36-.02-.8-.06-1.31-.06ZM335.63,111.98s-.08,0-.38.04l-.28.04c-.38.06-.7.08-.97.17-.74.21-1.23.63-1.23,1.63,0,.78.55,1.29,1.31,1.29.91,0,1.46-.38,1.57-1.23.04-.36.08-.76.08-1.4,0-.11.02-.32.02-.42,0-.08-.04-.13-.13-.13Z"/><path d="M344.46,107.24c0,.32-.04.61-.04.7,0,.11.06.13.11.13.06,0,.11-.11.23-.38.21-.46.59-.87,1.12-1.14s1.12-.38,1.74-.38c1.78,0,2.81,1.16,2.81,2.98v.15c0,1-.02,2.39-.02,3.79s0,2.86.04,3.92c-.49-.06-.95-.08-1.48-.08s-1.02.02-1.61.08c.02-1.02.02-2.35.02-3.72,0-1.29,0-2.58-.02-3.47-.02-.78-.32-1.33-1.12-1.33-.66,0-1.04.3-1.31.74-.21.34-.3.74-.32,1.54-.02.55-.02.91-.02,1.71,0,1.57.04,3.34.04,4.53-.47-.08-.95-.08-1.46-.08s-1.04.02-1.63.08c.02-.91.04-2.01.04-3.2,0-1.93-.02-4.04-.02-4.89-.06-1.23-.13-1.88-.23-2.5.55.06,1.06.08,1.61.08s.95-.04,1.4-.11c.08.3.13.59.13.85Z"/><path d="M356.56,106.16c.85,0,1.78.4,2.2,1.08.11.15.15.32.23.32.04,0,.08-.02.08-.13s-.02-.25-.02-.8l-.06-4.63c.57.06,1.08.08,1.61.08.49,0,.95-.02,1.46-.08-.06,2.31-.08,5.52-.08,8.68,0,2.29.06,4.78.23,6.33-.36-.02-1.14-.04-1.42-.04-.47,0-1.1.04-1.52.13-.02-.49-.02-.93-.04-1.02-.02-.17-.06-.21-.13-.21-.11,0-.17.19-.28.36-.44.83-1.63,1.04-2.41,1.04-2.73,0-3.68-2.41-3.68-5.46,0-3.68,1.1-5.63,3.83-5.63ZM357.36,115.13c.85,0,1.48-.53,1.63-1.78.04-.42.08-1.14.08-1.78,0-.8-.02-1.38-.04-1.65-.08-1.08-.74-1.65-1.59-1.65-1.14,0-1.63.66-1.63,3.28,0,2.22.42,3.58,1.54,3.58Z"/><path d="M374.92,117h-.28c-.72,0-1.5-.08-2.41-.08s-1.76.02-2.58.08c.04-2.18.06-4.7.06-7.34,0-2.46-.02-4.95-.06-7.34.83.06,1.71.08,2.58.08s1.69-.08,2.41-.08h.28c3.03,0,5.33,1.84,5.33,7.34s-2.31,7.34-5.33,7.34ZM374.07,104.68h-.7c-.38,0-.49.13-.49.4-.04,1.25-.04,2.75-.04,4.55,0,1.44.02,3.2.04,4.47,0,.4.11.51.66.51h.55c2.33,0,2.86-2.16,2.86-4.95s-.53-4.95-2.88-4.97Z"/><path d="M390,116.19c-.72.68-1.74,1.06-3.22,1.06-3.34,0-4.8-2.14-4.8-5.31,0-3.47,1.69-5.78,4.83-5.78s4.32,2.41,4.32,5.04c0,.38-.02.76-.06,1.14-.89-.04-1.99-.13-3.37-.13-.76,0-1.88.02-2.39.02-.3,0-.44.02-.44.34,0,1.31.63,2.56,1.95,2.56,1.06,0,1.54-.68,1.74-1.52.87.15,1.71.19,2.65.19-.11.89-.66,1.88-1.19,2.39ZM386.66,108.21c-1.1,0-1.8.89-1.8,2.18,0,.17.08.21.21.21.38,0,.83-.02,1.35-.02s1.06-.04,1.54-.08c.34-.02.36-.11.36-.42,0-1.18-.7-1.86-1.67-1.86Z"/><path d="M397.11,117.31c-2.39,0-4.23-.85-4.25-3.49.42.06.89.11,1.29.11.44,0,.95-.04,1.4-.13,0,.13,0,.25.02.38.13.74.68,1.16,1.5,1.16,1,0,1.48-.47,1.48-1.08,0-.76-.61-.97-2.05-1.5l-.23-.08c-1.48-.53-3.17-1.16-3.17-3.28,0-1.69,1.1-3.3,3.92-3.3,2.33,0,4.11.91,4.11,3.41-.42-.06-.97-.11-1.4-.11-.38,0-.8.02-1.18.08-.02-.19-.06-.36-.11-.51-.17-.55-.61-.91-1.35-.91-.83,0-1.31.47-1.31,1.02,0,.76.89,1.1,1.9,1.44l.25.08c1.54.51,3.37,1.19,3.37,3.3,0,1.88-1.25,3.41-4.17,3.41Z"/><path d="M403.5,104.81c.04-.47.06-.93.06-1.4s-.02-.93-.06-1.42c.51.06,1.12.08,1.54.08s1.04-.02,1.54-.08c-.04.49-.06.93-.06,1.42s.02.93.06,1.4c-.59-.06-1.14-.08-1.54-.08s-.95.02-1.54.08ZM405.13,116.91c-.53,0-1.08.02-1.63.08.04-1.44.06-3.39.06-5.35,0-1.82,0-3.7-.06-5.25.57.08,1.1.11,1.59.11.53,0,1.02-.04,1.5-.11-.04,1.59-.08,3.49-.08,5.33,0,1.95.04,3.85.08,5.27-.51-.06-.97-.08-1.46-.08Z"/><path d="M418.23,107.73c-.04,1.42-.06,3.11-.06,4.93,0,.44.02,3.64.02,4.08,0,3.11-1.42,4.4-4.72,4.4-2.9,0-4.04-.93-4.04-2.9.4.06.91.11,1.44.11.47,0,1.14-.02,1.54-.11,0,.68.47,1.04,1.31,1.04.97,0,1.46-.51,1.48-1.69,0-.25.02-1.04.04-1.21.02-.17.06-.3.06-.4,0-.04-.02-.11-.08-.11-.13,0-.25.34-.51.55-.46.44-1.21.61-1.99.61-2.67,0-3.83-2.12-3.83-5.52,0-3,1.23-5.35,3.85-5.35,1.08,0,1.8.44,2.14.89.19.23.3.51.36.7.02.06.06.13.13.13.08,0,.13-.08.13-.21.02-.36.04-.97.11-1.27.32.06.93.08,1.29.08.51,0,1.06-.04,1.48-.08-.08.42-.13.89-.15,1.33ZM415.18,109.93c-.13-.91-.57-1.65-1.63-1.65-1.18,0-1.59,1.04-1.59,3.3,0,2.71.63,3.41,1.67,3.41.83,0,1.48-.68,1.54-1.5.04-.46.06-.97.06-1.76,0-.61,0-1.35-.06-1.8Z"/><path d="M424.01,107.24c0,.32-.04.61-.04.7,0,.11.06.13.11.13.06,0,.11-.11.23-.38.21-.46.59-.87,1.12-1.14s1.12-.38,1.74-.38c1.78,0,2.81,1.16,2.81,2.98v.15c0,1-.02,2.39-.02,3.79s0,2.86.04,3.92c-.49-.06-.95-.08-1.48-.08s-1.02.02-1.61.08c.02-1.02.02-2.35.02-3.72,0-1.29,0-2.58-.02-3.47-.02-.78-.32-1.33-1.12-1.33-.66,0-1.04.3-1.31.74-.21.34-.3.74-.32,1.54-.02.55-.02.91-.02,1.71,0,1.57.04,3.34.04,4.53-.47-.08-.95-.08-1.46-.08s-1.04.02-1.63.08c.02-.91.04-2.01.04-3.2,0-1.93-.02-4.04-.02-4.89-.06-1.23-.13-1.88-.23-2.5.55.06,1.06.08,1.61.08s.95-.04,1.4-.11c.08.3.13.59.13.85Z"/><path d="M441.79,120.3c-.21,0-.4.02-.57.04-2.12-2.79-3.28-6.07-3.28-9.31s1.04-6.35,3.24-9.08c.17.02.38.04.61.04s.44-.02.61-.04c-1.88,2.69-2.73,5.86-2.73,9.02s.99,6.58,2.73,9.38c-.15-.02-.38-.04-.61-.04Z"/><path d="M449.2,117.21c-2.54,0-4.72-1.31-4.72-4.36,0-.23.02-.57.04-.74.23.04.53.06.8.06.32,0,.63-.02.91-.06-.02.21-.04.44-.04.76,0,2.01,1.18,2.92,3.15,2.92,2.31,0,3.09-1.19,3.09-2.54,0-1.19-.68-1.9-1.69-2.33-1.23-.51-2.73-.83-3.98-1.52-.36-.19-.68-.42-.95-.7-.61-.61-1-1.35-1-2.6,0-1.78,1.38-4,4.59-4,1.44,0,2.73.47,3.6,1.42.63.7.89,1.61.89,2.54,0,.25-.02.55-.06.8-.21-.04-.51-.06-.83-.06s-.61.02-.89.06c0-.11.02-.4.02-.68,0-1.76-1.14-2.67-2.86-2.67-1.91,0-2.86,1.19-2.86,2.56,0,.91.28,1.54,1.33,2.07,1.06.53,2.2.8,3.75,1.4.42.17.87.38,1.23.66.83.63,1.38,1.42,1.38,2.88,0,2.54-1.76,4.13-4.91,4.13Z"/><path d="M461.75,117.21c-3.13,0-4.74-1.65-4.74-5.08v-.17c0-1.74.06-3.34.06-5.16,0-1.57-.04-3-.06-4.49.3.04.59.06.87.06s.57-.02.87-.06c0,1.1-.06,2.77-.06,4.49,0,1.97,0,3.72.02,5.21.02,2.29.74,3.79,3.05,3.79s3.01-1.14,3.03-3.79c.02-1.57.04-3.24.04-5.21,0-1.54-.04-3.39-.04-4.49.28.04.55.06.83.06.3,0,.57-.02.89-.06-.02,1.44-.02,3.11-.02,4.49,0,1.61.02,3.34.02,5.16v.17c0,3.45-1.38,5.08-4.74,5.08Z"/><path d="M472.33,117c.04-3.96.06-7.94.06-11.89v-.8c0-.3-.08-.4-.42-.4h-.36c-.95,0-1.99.04-3.05.06.02-.23.04-.53.04-.83s-.02-.61-.04-.83c1.67.02,3,.06,4.63.06s2.96-.04,4.63-.06c-.02.21-.04.53-.04.83s.02.59.04.83c-1.06-.02-2.09-.06-3.05-.06h-.36c-.34,0-.42.11-.42.4v.8c0,3.96.02,7.94.06,11.89-.3-.04-.59-.06-.87-.06s-.57.02-.87.06Z"/><path d="M484.43,117h-.36c-.89,0-1.54-.06-2.35-.06-.51,0-1.46.02-1.8.06.04-1.86.06-4.4.06-7.07s-.02-5.27-.06-7.62c.34.02,1.27.06,1.76.06.87,0,1.61-.06,2.2-.06h.28c4.34,0,6.05,2.9,6.05,7.47s-1.97,7.22-5.78,7.22ZM483.69,103.75c-.15,0-1.52.02-1.52.02-.47,0-.51.02-.53.59-.04,1.67-.06,3.53-.06,5.44,0,1.54.02,3.15.04,4.46.02,1.19.04,1.21,1.12,1.27.23.02.51.02.85.02,3.87,0,4.93-1.97,4.93-5.8,0-3.03-.74-6.01-4.83-6.01Z"/><path d="M493.72,120.34c-.21-.02-.44-.04-.66-.04s-.4.02-.55.04c1.78-2.81,2.73-6.09,2.73-9.38s-.91-6.33-2.79-9.02c.17.04.4.04.61.04.23,0,.47-.02.66-.04,2.2,2.73,3.24,5.88,3.24,9.06s-1.1,6.52-3.24,9.33Z"/><path d="M509.96,117.21c-1.1,0-2.29-.3-2.79-1.48-.13-.3-.17-.44-.28-.44-.04,0-.08.04-.08.13,0,.3.08.93.08,1.52l.04,4.02c-.28-.04-.53-.06-.76-.06-.25,0-.61.02-.93.06.02-1.5.04-3.15.04-5.35s0-4.28-.02-6.1c0-.66-.06-2.22-.17-3.09.25.04.55.06.85.06s.57-.02.87-.06c0,.04.02.4.02.57,0,.38-.02.72-.02.85s.02.23.13.23c.06,0,.13-.08.19-.23.57-1.16,1.38-1.63,2.84-1.63,2.54,0,3.87,1.78,3.87,5.33,0,2.92-.93,5.67-3.87,5.67ZM509.65,107.6c-1.35,0-2.26.76-2.6,2.14-.11.4-.15,1.25-.15,2.12s.04,1.54.13,1.84c.32,1.21,1.31,2.12,2.5,2.12,1.91,0,2.67-1.27,2.67-4.25,0-2.67-.66-3.96-2.54-3.96Z"/><path d="M522.91,116.53c0-.38.02-.8.02-.93s-.02-.25-.13-.25c-.06,0-.13.08-.19.23-.3.59-.97,1.63-2.9,1.63-2.18,0-3.15-1.46-3.15-3.58v-2.58c0-1.67-.02-3.49-.04-4.63.19.04.51.06.8.06.32,0,.68-.02.89-.06-.02.93-.04,2.22-.04,3.56,0,1.25.02,2.22.02,3.03.02,1.44.28,2.81,1.91,2.81.61,0,1.25-.21,1.69-.66.7-.68,1.02-1.61,1.02-3.05,0-.44-.02-1.04-.02-1.71,0-1.4-.04-2.96-.04-3.98.3.04.59.06.89.06.28,0,.57-.02.8-.06-.02.87-.04,3.94-.04,4.91v.61c0,1.08.02,2.18.08,3.26.04.8.13,1.65.15,1.8-.27-.04-.53-.06-.8-.06s-.61.02-.89.06c0-.04-.02-.3-.02-.47Z"/><path d="M530.55,106.86c.45-.47,1-.66,1.76-.66.19,0,.3.02.34.02.02.19.04.53.04.87s-.02.74-.04.95c-.19-.04-.32-.06-.68-.06-.89,0-1.76.51-2.16,1.82-.17.57-.25,1.27-.25,2.05,0,1.67.06,3.3.08,5.14-.28-.04-.64-.06-.89-.06s-.53.02-.8.06c.02-1.25.02-3.34.02-5.14,0-1.12,0-2.22-.04-3.45-.04-.8-.13-1.65-.19-1.99.3.04.55.06.8.06.21,0,.51-.02.76-.06.04.19.11.74.11,1.12,0,.27-.02.49-.02.59,0,.13.02.23.13.23.04,0,.08-.04.13-.11.11-.15.46-.93.91-1.4Z"/><path d="M537.85,117.21c-2.26,0-3.85-1.02-3.85-3.28v-.15c.23.04.57.06.83.06s.55-.02.8-.06c.04,1.4.66,2.05,2.22,2.05,1.33,0,2.31-.53,2.31-1.65,0-1.25-1.23-1.54-2.54-1.88l-.32-.08c-1.5-.4-3.03-.91-3.03-2.9,0-1.76,1.46-3.11,3.58-3.11,1.71,0,3.24.74,3.53,2.56.02.19.04.4.04.72-.19-.02-.49-.04-.7-.04-.3,0-.57.02-.83.06,0-.17-.02-.34-.04-.49-.21-1.1-.99-1.46-2.01-1.46-1.55,0-2.05.93-2.05,1.61,0,.87.25,1.23,2.22,1.76l.32.08c1.57.42,3.37.87,3.37,3.05,0,1.95-1.44,3.15-3.85,3.15Z"/><path d="M550.63,116.53c0-.38.02-.8.02-.93s-.02-.25-.13-.25c-.06,0-.13.08-.19.23-.3.59-.97,1.63-2.9,1.63-2.18,0-3.15-1.46-3.15-3.58v-2.58c0-1.67-.02-3.49-.04-4.63.19.04.51.06.8.06.32,0,.68-.02.89-.06-.02.93-.04,2.22-.04,3.56,0,1.25.02,2.22.02,3.03.02,1.44.28,2.81,1.91,2.81.61,0,1.25-.21,1.69-.66.7-.68,1.02-1.61,1.02-3.05,0-.44-.02-1.04-.02-1.71,0-1.4-.04-2.96-.04-3.98.3.04.59.06.89.06.28,0,.57-.02.8-.06-.02.87-.04,3.94-.04,4.91v.61c0,1.08.02,2.18.08,3.26.04.8.13,1.65.15,1.8-.27-.04-.53-.06-.8-.06s-.61.02-.89.06c0-.04-.02-.3-.02-.47Z"/><path d="M556.58,103.98c-.3,0-.64.02-.91.06.04-.32.06-.68.06-1.06,0-.34-.02-.72-.06-.99.27.04.57.06.87.06.28,0,.61-.02.83-.06-.02.21-.04.59-.04.99s.02.83.04,1.06c-.21-.04-.49-.06-.78-.06ZM556.51,116.93c-.23,0-.59.02-.85.06.04-1.33.04-3.15.04-5.06s0-3.87-.04-5.52c.27.04.63.06.87.06.28,0,.53-.02.83-.06-.04,1.61-.04,3.56-.04,5.44s0,3.81.04,5.14c-.3-.04-.57-.06-.85-.06Z"/><path d="M562.4,106.99c0,.38-.02.72-.02.85s.02.23.13.23c.06,0,.13-.08.19-.23.3-.59.97-1.63,2.9-1.63,2.18,0,3.15,1.46,3.15,3.58v2.5c0,1.67.02,3.58.04,4.72-.19-.04-.51-.06-.8-.06-.32,0-.68.02-.89.06.02-.93.04-2.31.04-3.64,0-1.25-.02-2.14-.02-2.94-.02-1.44-.28-2.81-1.9-2.81-.61,0-1.25.21-1.69.66-.7.68-1.02,1.5-1.02,2.94,0,.44.02,1.06.02,1.74,0,1.4.04,3.05.04,4.06-.3-.04-.59-.06-.89-.06-.27,0-.57.02-.8.06.02-.87.04-4.02.04-5v-.61c0-1.08-.02-2.18-.08-3.26-.04-.8-.13-1.57-.15-1.71.27.04.53.06.8.06s.61-.02.89-.06c0,.04.02.4.02.57Z"/><path d="M571.47,111.68c0-3.51,1.48-5.48,3.92-5.48,1.46,0,2.2.49,2.73,1.67.06.15.11.19.17.19s.11-.04.11-.13c0-.3-.08-1.27-.08-1.52.28.04.57.06.87.06s.57-.02.85-.06c-.06,1.82-.13,3.81-.13,5.44,0,1.8.02,3.7.02,5.5,0,2.82-1.69,3.77-4.23,3.77-2.77,0-3.62-1.16-3.62-2.75.28.04.59.06.91.06.28,0,.55-.02.78-.06,0,.85.57,1.33,2.03,1.33s2.56-.83,2.56-2.41v-.63c0-.55.06-1.1.06-1.38,0-.08-.02-.11-.06-.11-.11,0-.15.13-.28.42-.47,1.1-1.59,1.5-2.6,1.5-2.52-.06-4-1.88-4-5.42ZM578.14,109.65c-.38-1.25-1.25-2.05-2.41-2.05-2.01,0-2.62,1.74-2.62,3.96,0,3.17.91,4.17,2.71,4.17,1.16,0,2.01-.78,2.37-1.99.04-.17.13-1.06.13-2.05,0-.78-.04-1.59-.17-2.03Z"/><path d="M9.04,142.34c-.42,0-.99.04-1.35.08-.02-.17-.06-.59-.06-1.02v-.36c0-.13-.04-.21-.11-.21-.08,0-.15.06-.25.28-.53,1.16-1.65,1.48-2.77,1.48-2.18,0-3.34-1.14-3.34-3.03,0-3.17,2.79-3.37,4.97-3.54l.55-.04c.57-.04.78-.25.78-.78v-.04c0-1.61-.68-2.18-2.16-2.18-1.02,0-1.63.21-1.93.61-.19.25-.25.55-.25.87,0,.25.04.44.04.53-.25-.04-.57-.06-.8-.06-.25,0-.49.02-.76.06-.02-.13-.04-.34-.04-.59,0-1.93,1.71-2.82,3.75-2.82,1.29,0,2.81.34,3.43,1.69.3.66.32,1.23.32,1.93,0,1.29-.02,2.98-.02,3.94,0,1.14.13,2.24.3,3.2h-.27ZM4.44,137.46c-.97.21-1.74.61-1.74,1.93s.8,1.86,1.93,1.86c1.31,0,2.26-.53,2.65-1.95.08-.34.13-.74.15-1.16.02-.4.02-.7.02-.89v-.08c0-.06-.02-.15-.11-.15s-.13.04-.4.11c-.25.06-.68.11-1.12.15-.42.04-.97.11-1.38.19Z"/><path d="M26.05,142.39c-.25-.04-.55-.06-.85-.06s-.57.02-.87.06c0-.04-.02-.3-.02-.47,0-.38.02-.8.02-.93s-.02-.23-.13-.23c-.06,0-.13.06-.19.21-.57,1.16-1.38,1.63-2.84,1.63-2.54,0-3.87-1.86-3.87-5.42,0-2.92.93-5.59,3.87-5.59,1.1,0,2.29.32,2.79,1.5.13.3.17.44.27.44.04,0,.08-.04.08-.13,0-.3-.08-.93-.08-1.52l-.04-4.51c.27.04.59.06.83.06.19,0,.55-.02.87-.06-.02,1.5-.04,3.53-.04,5.74s0,4.49.02,6.31c0,.66.06,2.09.17,2.96ZM24.1,139.06c.11-.4.15-1.23.15-2.1s-.04-1.54-.13-1.84c-.32-1.21-1.29-2.14-2.48-2.14-1.9,0-2.69,1.18-2.69,4.17,0,2.67.68,4.04,2.56,4.04,1.33,0,2.24-.76,2.58-2.14Z"/><path d="M33.12,142.6c-2.84,0-4.32-2.03-4.32-5.33,0-3.66,1.67-5.67,4.38-5.67,2.37,0,3.85,1.59,3.85,5.16,0,.19-.02.4-.02.61-.59-.04-1.97-.08-3.41-.08h-2.84c-.32,0-.38.06-.38.36v.15c0,2.2,1.06,3.41,2.81,3.41,1.5,0,2.07-.66,2.33-1.95.32.04.7.08,1.04.08.17,0,.38-.02.53-.04-.34,2.12-1.69,3.3-3.98,3.3ZM33.09,132.99c-1.48,0-2.39,1.02-2.65,2.65-.02.08-.02.17-.02.23,0,.25.04.28.47.28.38,0,.91.02,1.38.02.78,0,1.69-.02,2.58-.08.51-.04.51-.06.51-.47,0-1.08-.47-2.62-2.26-2.62Z"/><path d="M39.38,137.07c0-3.51,1.48-5.48,3.92-5.48,1.46,0,2.2.49,2.73,1.67.06.15.11.19.17.19s.11-.04.11-.13c0-.3-.08-1.27-.08-1.52.27.04.57.06.87.06s.57-.02.85-.06c-.06,1.82-.13,3.81-.13,5.44,0,1.8.02,3.7.02,5.5,0,2.82-1.69,3.77-4.23,3.77-2.77,0-3.62-1.16-3.62-2.75.28.04.59.06.91.06.27,0,.55-.02.78-.06,0,.85.57,1.33,2.03,1.33s2.56-.83,2.56-2.41v-.63c0-.55.06-1.1.06-1.38,0-.08-.02-.11-.06-.11-.11,0-.15.13-.27.42-.47,1.1-1.59,1.5-2.6,1.5-2.52-.06-4-1.88-4-5.42ZM46.04,135.04c-.38-1.25-1.25-2.05-2.41-2.05-2.01,0-2.62,1.74-2.62,3.96,0,3.17.91,4.17,2.71,4.17,1.16,0,2.01-.78,2.37-1.99.04-.17.13-1.06.13-2.05,0-.78-.04-1.59-.17-2.03Z"/><path d="M53.96,132.25c.44-.47.99-.66,1.76-.66.19,0,.3.02.34.02.02.19.04.53.04.87s-.02.74-.04.95c-.19-.04-.32-.06-.68-.06-.89,0-1.76.51-2.16,1.82-.17.57-.25,1.27-.25,2.05,0,1.67.06,3.3.08,5.14-.27-.04-.63-.06-.89-.06s-.53.02-.8.06c.02-1.25.02-3.34.02-5.14,0-1.12,0-2.22-.04-3.45-.04-.8-.13-1.65-.19-1.99.3.04.55.06.8.06.21,0,.51-.02.76-.06.04.19.11.74.11,1.12,0,.27-.02.49-.02.59,0,.13.02.23.13.23.04,0,.08-.04.13-.11.11-.15.47-.93.91-1.4Z"/><path d="M61.76,142.6c-2.84,0-4.32-2.03-4.32-5.33,0-3.66,1.67-5.67,4.38-5.67,2.37,0,3.85,1.59,3.85,5.16,0,.19-.02.4-.02.61-.59-.04-1.97-.08-3.41-.08h-2.84c-.32,0-.38.06-.38.36v.15c0,2.2,1.06,3.41,2.81,3.41,1.5,0,2.07-.66,2.33-1.95.32.04.7.08,1.04.08.17,0,.38-.02.53-.04-.34,2.12-1.69,3.3-3.98,3.3ZM61.74,132.99c-1.48,0-2.39,1.02-2.65,2.65-.02.08-.02.17-.02.23,0,.25.04.28.47.28.38,0,.91.02,1.38.02.78,0,1.69-.02,2.58-.08.51-.04.51-.06.51-.47,0-1.08-.47-2.62-2.26-2.62Z"/><path d="M72.34,142.6c-2.84,0-4.32-2.03-4.32-5.33,0-3.66,1.67-5.67,4.38-5.67,2.37,0,3.85,1.59,3.85,5.16,0,.19-.02.4-.02.61-.59-.04-1.97-.08-3.41-.08h-2.84c-.32,0-.38.06-.38.36v.15c0,2.2,1.06,3.41,2.81,3.41,1.5,0,2.07-.66,2.33-1.95.32.04.7.08,1.04.08.17,0,.38-.02.53-.04-.34,2.12-1.69,3.3-3.98,3.3ZM72.32,132.99c-1.48,0-2.39,1.02-2.65,2.65-.02.08-.02.17-.02.23,0,.25.04.28.47.28.38,0,.91.02,1.38.02.78,0,1.69-.02,2.58-.08.51-.04.51-.06.51-.47,0-1.08-.47-2.62-2.26-2.62Z"/><path d="M85.57,129.37c-.3,0-.63.02-.91.06.04-.32.06-.68.06-1.06,0-.34-.02-.72-.06-.99.27.04.57.06.87.06.27,0,.61-.02.83-.06-.02.21-.04.59-.04.99s.02.83.04,1.06c-.21-.04-.49-.06-.78-.06ZM85.5,142.32c-.23,0-.59.02-.85.06.04-1.33.04-3.15.04-5.06s0-3.87-.04-5.52c.27.04.63.06.87.06.27,0,.53-.02.83-.06-.04,1.61-.04,3.56-.04,5.44s0,3.81.04,5.14c-.3-.04-.57-.06-.85-.06Z"/><path d="M91.39,132.38c0,.38-.02.72-.02.85s.02.23.13.23c.06,0,.13-.08.19-.23.3-.59.97-1.63,2.9-1.63,2.18,0,3.15,1.46,3.15,3.58v2.5c0,1.67.02,3.58.04,4.72-.19-.04-.51-.06-.8-.06-.32,0-.68.02-.89.06.02-.93.04-2.31.04-3.64,0-1.25-.02-2.14-.02-2.94-.02-1.44-.28-2.81-1.9-2.81-.61,0-1.25.21-1.69.66-.7.68-1.02,1.5-1.02,2.94,0,.44.02,1.06.02,1.74,0,1.4.04,3.05.04,4.06-.3-.04-.59-.06-.89-.06-.28,0-.57.02-.8.06.02-.87.04-4.02.04-5v-.61c0-1.08-.02-2.18-.08-3.26-.04-.8-.13-1.57-.15-1.71.28.04.53.06.8.06s.61-.02.89-.06c0,.04.02.4.02.57Z"/><path d="M116.1,138.79c-.4,2.62-2.1,3.85-4.95,3.85-3.79,0-5.44-2.54-5.44-7.6s1.69-7.6,5.46-7.6c3.01,0,4.53,1.42,4.89,3.85.08.61.15,1.21.15,1.84-.44-.06-1.04-.13-1.57-.13-.57,0-1.21.04-1.63.11l-.02-.36c-.06-1.18-.23-2.88-1.78-2.88s-2.29.91-2.29,5.16c0,3.56.51,5.18,2.26,5.18,1.44,0,1.71-1.16,1.82-2.26.02-.3.04-.47.04-.76.51.06,1.06.11,1.59.11s1.02-.02,1.59-.11c0,.57-.04,1.02-.13,1.59Z"/><path d="M118.11,137.07c0-3.47,1.54-5.52,4.66-5.52s4.66,2.05,4.66,5.52-1.54,5.57-4.66,5.57-4.66-2.09-4.66-5.57ZM121.18,137.07c0,2.62.47,3.45,1.59,3.45s1.59-.83,1.59-3.45-.47-3.41-1.59-3.41-1.59.78-1.59,3.41Z"/><path d="M142.74,142.3c-.51,0-1.04.02-1.65.08.04-1.12.06-2.52.06-3.89,0-1.18,0-2.35-.04-3.26-.04-.8-.23-1.38-1.04-1.38-.66,0-1.02.19-1.35.72-.17.3-.28.78-.28,1.16-.02,1.02-.02,1.42-.02,2.54,0,1.06.02,3.3.06,4.11-.47-.06-.97-.08-1.5-.08s-1.04.02-1.61.08c.04-1.02.06-2.41.06-3.77,0-1.25-.02-2.46-.06-3.36-.04-.85-.25-1.35-1.04-1.35-.66,0-1.02.3-1.29.74-.21.34-.3.74-.32,1.54,0,.38-.02,1.29-.02,2.24,0,1.42.02,2.92.06,3.96-.49-.06-.97-.08-1.5-.08s-1.04.02-1.59.08c.04-1.76.04-3.81.04-5.71v-1.06c0-1.86-.08-2.9-.25-3.83.55.06,1.08.11,1.61.11.49,0,.89-.04,1.35-.11.11.28.13.72.13.89,0,.3-.02.59-.02.7s.06.13.11.13c.06,0,.11-.11.23-.38.21-.47.59-.89,1.12-1.16.53-.28,1.12-.4,1.74-.4.66,0,1.23.17,1.65.51.34.25.59.61.72,1.06.04.11.08.3.15.3.11,0,.15-.28.28-.49.23-.36.47-.63.83-.87.51-.34,1.16-.51,1.93-.51,1.76,0,2.88,1.08,2.88,2.69v.15c0,.85-.04,2.69-.04,3.92,0,1.06.02,3.26.06,4.08-.44-.06-.95-.08-1.44-.08Z"/><path d="M152.45,142.64c-.76,0-1.65-.25-2.18-.87-.11-.13-.19-.34-.28-.42-.02-.02-.04-.02-.06-.02-.04,0-.06.02-.06.06,0,.19.08.74.11,1.46l.06,3.51c-.47-.06-.91-.08-1.42-.08s-1.08.02-1.69.08c.06-1.52.06-3.58.06-5.67s-.02-4.8-.06-6.71c-.02-.7-.11-1.65-.25-2.2.51.02,1.02.06,1.48.06.57,0,1.16-.04,1.65-.08.04.19.04.38.04.57,0,.21-.02.42-.02.63,0,.06.02.13.06.13.11,0,.23-.28.3-.36.47-.61,1.19-1.19,2.5-1.19,2.37,0,3.62,1.9,3.62,5.23s-.93,5.86-3.85,5.86ZM151.67,133.67c-.53,0-.93.25-1.23.59-.23.25-.42.59-.44,1.06-.04.85-.06,2.05-.06,3.03,0,.32.02.63.04.91.02.23.08.42.21.59.32.42.76.68,1.33.68,1.27,0,1.67-1.12,1.67-3.41,0-2.41-.4-3.45-1.52-3.45Z"/><path d="M158.61,139.66v-.06c0-1.25.02-2.77.02-4.15v-1.93c0-.63,0-1.21-.02-1.71.55.06,1.06.08,1.59.08s1.02-.02,1.5-.08c-.04,1.06-.06,2.41-.06,3.77,0,1.23.04,2.43.06,3.39.02.8.25,1.33,1.08,1.33.97,0,1.54-.78,1.63-1.67.06-.55.06-1.16.06-1.82v-.72c0-1.38,0-3.11-.04-4.28.55.06,1.08.08,1.61.08.49,0,.99-.02,1.48-.08-.06,1.16-.08,2.73-.08,4.34,0,1.52.02,3.26.08,4.49.02.47.04,1.27.17,1.76-.55-.06-1.04-.11-1.59-.11s-.99.04-1.44.11c-.08-.3-.11-.7-.11-1,0-.27.02-.44.02-.55s-.04-.15-.08-.15c-.06,0-.08.11-.21.38-.21.47-.59.89-1.12,1.16-.53.28-1.12.4-1.74.4-1.9,0-2.81-1.25-2.81-2.98Z"/><path d="M176.19,142.15c-.89.46-1.82.49-2.54.49-1.84,0-2.88-.74-2.88-2.62v-.3c0-1.46.02-2.09.04-3.56,0-.46.06-.97.06-1.61v-.42c0-.21-.08-.25-.25-.25-.15,0-.36.02-.85.04l-.53.02c.02-.15.02-.47.02-.74,0-.21-.02-.4-.02-.51,1.06-.76,2.16-1.93,2.69-3.49.32-.04.63-.04.91-.04.38,0,.72.02,1.06.04-.04,1.12-.08,1.38-.08,2.2,0,.34.02.47.25.47h.3c.55,0,1.08-.04,1.82-.08-.02.23-.04.68-.04,1.12s.02.85.04,1.04c-.68-.02-1.35-.06-2.05-.06-.28,0-.32.02-.32.34,0,.68.02,1.44.02,2.18,0,.91.02,1.82.04,2.65.04,1.02.17,1.27,1.14,1.27.34,0,.74-.08,1.19-.28.04.32.06.7.06,1.06s-.02.7-.08,1.06Z"/><path d="M185.78,141.58c-.72.68-1.74,1.06-3.22,1.06-3.34,0-4.8-2.14-4.8-5.31,0-3.47,1.69-5.78,4.83-5.78s4.32,2.41,4.32,5.04c0,.38-.02.76-.06,1.14-.89-.04-1.99-.13-3.37-.13-.76,0-1.88.02-2.39.02-.3,0-.44.02-.44.34,0,1.31.63,2.56,1.95,2.56,1.06,0,1.55-.68,1.74-1.52.87.15,1.71.19,2.65.19-.11.89-.66,1.88-1.19,2.39ZM182.43,133.6c-1.1,0-1.8.89-1.8,2.18,0,.17.08.21.21.21.38,0,.83-.02,1.35-.02s1.06-.04,1.54-.08c.34-.02.36-.11.36-.42,0-1.18-.7-1.86-1.67-1.86Z"/><path d="M195.13,134.73c-.32-.15-.7-.32-1.14-.32-.95,0-1.61.61-1.74,1.65-.11.89-.13,1.57-.13,2.39,0,1.25.02,2.41.08,3.94-.51-.06-1.02-.08-1.5-.08s-.97.02-1.5.08c.04-1.25.06-3.03.06-4.66,0-1.95-.04-3.81-.06-4.3-.02-.44-.11-1.25-.23-1.65.59.06,1.16.11,1.71.11.42,0,.87-.02,1.31-.08.06.3.11.7.11,1.02,0,.21-.04.49-.04.66,0,.08.02.13.08.13.08,0,.11-.17.25-.47.21-.4.49-.85.91-1.14.42-.3.95-.44,1.44-.44.19,0,.34.02.44.04.02.36.04,1.16.04,1.5,0,.49-.02,1.16-.11,1.63Z"/><path d="M207.23,142.66c-3.56,0-5.12-1.84-5.12-5.1v-.11c.42.06.93.11,1.44.11.55,0,1.1-.04,1.54-.11,0,1.57.57,2.79,2.39,2.79,1.46,0,1.88-.76,1.88-1.63,0-.68-.32-1.14-.83-1.52-1.12-.83-2.84-1.12-4.15-1.9-1.35-.8-2.05-1.93-2.05-3.56,0-2.01,1.38-4.23,4.95-4.23,2.73,0,4.87,1.44,4.87,4.06,0,.21-.02.47-.04.7-.36-.04-.93-.11-1.4-.11-.57,0-1.02.04-1.48.11-.06-1.27-.44-2.33-1.99-2.33-1.4,0-1.9.72-1.9,1.52s.53,1.44,1.74,1.88c1.65.61,3.32,1.25,4.38,2.37.61.66.97,1.48.97,2.67,0,2.92-2.16,4.38-5.21,4.38Z"/><path d="M221.73,135.64c-.49,0-.95.02-1.48.08v-.27c0-.93-.32-1.78-1.25-1.78-1.21,0-1.57.91-1.57,3.51,0,2.37.49,3.34,1.54,3.34s1.35-.68,1.35-2.03c.38.04.8.08,1.35.08.51,0,.97-.04,1.38-.08.02.13.02.25.02.38,0,2.52-1.57,3.77-4.13,3.77-3.2,0-4.59-2.18-4.59-5.4,0-3.56,1.42-5.69,4.66-5.69,2.96,0,4.11,1.54,4.11,3.81v.36c-.51-.06-.95-.08-1.4-.08Z"/><path d="M225.56,130.2c.04-.47.06-.93.06-1.4s-.02-.93-.06-1.42c.51.06,1.12.08,1.54.08s1.04-.02,1.54-.08c-.04.49-.06.93-.06,1.42s.02.93.06,1.4c-.59-.06-1.14-.08-1.54-.08s-.95.02-1.54.08ZM227.19,142.3c-.53,0-1.08.02-1.63.08.04-1.44.06-3.39.06-5.35,0-1.82,0-3.7-.06-5.25.57.08,1.1.11,1.59.11.53,0,1.02-.04,1.5-.11-.04,1.59-.08,3.49-.08,5.33,0,1.95.04,3.85.08,5.27-.51-.06-.97-.08-1.46-.08Z"/><path d="M238.85,141.58c-.72.68-1.74,1.06-3.22,1.06-3.34,0-4.8-2.14-4.8-5.31,0-3.47,1.69-5.78,4.83-5.78s4.32,2.41,4.32,5.04c0,.38-.02.76-.06,1.14-.89-.04-1.99-.13-3.37-.13-.76,0-1.88.02-2.39.02-.3,0-.44.02-.44.34,0,1.31.63,2.56,1.95,2.56,1.06,0,1.55-.68,1.74-1.52.87.15,1.71.19,2.65.19-.11.89-.66,1.88-1.19,2.39ZM235.5,133.6c-1.1,0-1.8.89-1.8,2.18,0,.17.08.21.21.21.38,0,.83-.02,1.35-.02s1.06-.04,1.54-.08c.34-.02.36-.11.36-.42,0-1.18-.7-1.86-1.67-1.86Z"/><path d="M245.23,132.63c0,.32-.04.61-.04.7,0,.11.06.13.11.13.06,0,.11-.11.23-.38.21-.46.59-.87,1.12-1.14.53-.28,1.12-.38,1.74-.38,1.78,0,2.81,1.16,2.81,2.98v.15c0,1-.02,2.39-.02,3.79s0,2.86.04,3.92c-.49-.06-.95-.08-1.48-.08s-1.02.02-1.61.08c.02-1.02.02-2.35.02-3.72,0-1.29,0-2.58-.02-3.47-.02-.78-.32-1.33-1.12-1.33-.66,0-1.04.3-1.31.74-.21.34-.3.74-.32,1.54-.02.55-.02.91-.02,1.71,0,1.57.04,3.34.04,4.53-.47-.08-.95-.08-1.46-.08s-1.04.02-1.63.08c.02-.91.04-2.01.04-3.2,0-1.93-.02-4.04-.02-4.89-.06-1.23-.13-1.88-.23-2.5.55.06,1.06.08,1.61.08s.95-.04,1.4-.11c.08.3.13.59.13.85Z"/><path d="M260.87,135.64c-.49,0-.95.02-1.48.08v-.27c0-.93-.32-1.78-1.25-1.78-1.21,0-1.57.91-1.57,3.51,0,2.37.49,3.34,1.54,3.34s1.35-.68,1.35-2.03c.38.04.8.08,1.35.08.51,0,.97-.04,1.38-.08.02.13.02.25.02.38,0,2.52-1.57,3.77-4.13,3.77-3.2,0-4.59-2.18-4.59-5.4,0-3.56,1.42-5.69,4.66-5.69,2.96,0,4.11,1.54,4.11,3.81v.36c-.51-.06-.95-.08-1.4-.08Z"/><path d="M272.17,141.58c-.72.68-1.74,1.06-3.22,1.06-3.34,0-4.8-2.14-4.8-5.31,0-3.47,1.69-5.78,4.83-5.78s4.32,2.41,4.32,5.04c0,.38-.02.76-.06,1.14-.89-.04-1.99-.13-3.37-.13-.76,0-1.88.02-2.39.02-.3,0-.44.02-.44.34,0,1.31.63,2.56,1.95,2.56,1.06,0,1.55-.68,1.74-1.52.87.15,1.71.19,2.65.19-.11.89-.66,1.88-1.19,2.39ZM268.83,133.6c-1.1,0-1.8.89-1.8,2.18,0,.17.08.21.21.21.38,0,.83-.02,1.35-.02s1.06-.04,1.54-.08c.34-.02.36-.11.36-.42,0-1.18-.7-1.86-1.67-1.86Z"/><path d="M288.57,142.34c-.59,0-1.33.08-1.82.17-.11-.38-.15-.78-.15-1.1,0-.15-.02-.21-.11-.21-.11,0-.17.28-.38.53-.49.63-1.46.91-2.29.91-2.01,0-3.22-1.21-3.22-3.17,0-2.58,2.16-3.15,4.23-3.37l1.02-.11c.34-.04.47-.13.55-.3.06-.15.08-.34.08-.57v-.15c0-1.06-.42-1.48-1.31-1.48-1.06,0-1.46.49-1.46,1.48-.32-.04-.61-.06-.93-.06-.55,0-1.1.06-1.69.19,0-.19-.02-.4-.02-.49,0-2.03,1.71-3.07,4.23-3.07,2.14,0,4.06.8,4.17,2.69.04.8.06,1.61.06,2.56,0,1.08,0,2.22.02,2.9.02,1.16.15,2.03.32,2.71-.36-.02-.8-.06-1.31-.06ZM286.43,137.37s-.08,0-.38.04l-.27.04c-.38.06-.7.08-.97.17-.74.21-1.23.63-1.23,1.63,0,.78.55,1.29,1.31,1.29.91,0,1.46-.38,1.57-1.23.04-.36.08-.76.08-1.4,0-.11.02-.32.02-.42,0-.08-.04-.13-.13-.13Z"/><path d="M295.25,132.63c0,.32-.04.61-.04.7,0,.11.06.13.11.13.06,0,.11-.11.23-.38.21-.46.59-.87,1.12-1.14s1.12-.38,1.74-.38c1.78,0,2.81,1.16,2.81,2.98v.15c0,1-.02,2.39-.02,3.79s0,2.86.04,3.92c-.49-.06-.95-.08-1.48-.08s-1.02.02-1.61.08c.02-1.02.02-2.35.02-3.72,0-1.29,0-2.58-.02-3.47-.02-.78-.32-1.33-1.12-1.33-.66,0-1.04.3-1.31.74-.21.34-.3.74-.32,1.54-.02.55-.02.91-.02,1.71,0,1.57.04,3.34.04,4.53-.47-.08-.95-.08-1.46-.08s-1.04.02-1.63.08c.02-.91.04-2.01.04-3.2,0-1.93-.02-4.04-.02-4.89-.06-1.23-.13-1.88-.23-2.5.55.06,1.06.08,1.61.08s.95-.04,1.4-.11c.08.3.13.59.13.85Z"/><path d="M307.36,131.55c.85,0,1.78.4,2.2,1.08.11.15.15.32.23.32.04,0,.08-.02.08-.13s-.02-.25-.02-.8l-.06-4.63c.57.06,1.08.08,1.61.08.49,0,.95-.02,1.46-.08-.06,2.31-.08,5.52-.08,8.68,0,2.29.06,4.78.23,6.33-.36-.02-1.14-.04-1.42-.04-.47,0-1.1.04-1.52.13-.02-.49-.02-.93-.04-1.02-.02-.17-.06-.21-.13-.21-.11,0-.17.19-.28.36-.44.83-1.63,1.04-2.41,1.04-2.73,0-3.68-2.41-3.68-5.46,0-3.68,1.1-5.63,3.83-5.63ZM308.16,140.52c.85,0,1.48-.53,1.63-1.78.04-.42.08-1.14.08-1.78,0-.8-.02-1.38-.04-1.65-.08-1.08-.74-1.65-1.59-1.65-1.14,0-1.63.66-1.63,3.28,0,2.22.42,3.58,1.54,3.58Z"/><path d="M326.55,142.39h-.28c-.72,0-1.5-.08-2.41-.08s-1.76.02-2.58.08c.04-2.18.06-4.7.06-7.34,0-2.46-.02-4.95-.06-7.34.83.06,1.71.08,2.58.08s1.69-.08,2.41-.08h.28c3.03,0,5.33,1.84,5.33,7.34s-2.31,7.34-5.33,7.34ZM325.7,130.07h-.7c-.38,0-.49.13-.49.4-.04,1.25-.04,2.75-.04,4.55,0,1.44.02,3.2.04,4.47,0,.4.11.51.66.51h.55c2.33,0,2.86-2.16,2.86-4.95s-.53-4.95-2.88-4.97Z"/><path d="M341.64,141.58c-.72.68-1.74,1.06-3.22,1.06-3.34,0-4.8-2.14-4.8-5.31,0-3.47,1.69-5.78,4.83-5.78s4.32,2.41,4.32,5.04c0,.38-.02.76-.06,1.14-.89-.04-1.99-.13-3.37-.13-.76,0-1.88.02-2.39.02-.3,0-.44.02-.44.34,0,1.31.63,2.56,1.95,2.56,1.06,0,1.54-.68,1.74-1.52.87.15,1.71.19,2.65.19-.11.89-.66,1.88-1.19,2.39ZM338.29,133.6c-1.1,0-1.8.89-1.8,2.18,0,.17.08.21.21.21.38,0,.83-.02,1.35-.02s1.06-.04,1.54-.08c.34-.02.36-.11.36-.42,0-1.18-.7-1.86-1.67-1.86Z"/><path d="M348.75,142.7c-2.39,0-4.23-.85-4.25-3.49.42.06.89.11,1.29.11.44,0,.95-.04,1.4-.13,0,.13,0,.25.02.38.13.74.68,1.16,1.5,1.16,1,0,1.48-.47,1.48-1.08,0-.76-.61-.97-2.05-1.5l-.23-.08c-1.48-.53-3.17-1.16-3.17-3.28,0-1.69,1.1-3.3,3.92-3.3,2.33,0,4.11.91,4.11,3.41-.42-.06-.97-.11-1.4-.11-.38,0-.8.02-1.18.08-.02-.19-.06-.36-.11-.51-.17-.55-.61-.91-1.35-.91-.83,0-1.31.47-1.31,1.02,0,.76.89,1.1,1.9,1.44l.25.08c1.54.51,3.37,1.19,3.37,3.3,0,1.88-1.25,3.41-4.17,3.41Z"/><path d="M355.13,130.2c.04-.47.06-.93.06-1.4s-.02-.93-.06-1.42c.51.06,1.12.08,1.54.08s1.04-.02,1.54-.08c-.04.49-.06.93-.06,1.42s.02.93.06,1.4c-.59-.06-1.14-.08-1.54-.08s-.95.02-1.54.08ZM356.76,142.3c-.53,0-1.08.02-1.63.08.04-1.44.06-3.39.06-5.35,0-1.82,0-3.7-.06-5.25.57.08,1.1.11,1.59.11.53,0,1.02-.04,1.5-.11-.04,1.59-.08,3.49-.08,5.33,0,1.95.04,3.85.08,5.27-.51-.06-.97-.08-1.46-.08Z"/><path d="M369.86,133.12c-.04,1.42-.06,3.11-.06,4.93,0,.44.02,3.64.02,4.08,0,3.11-1.42,4.4-4.72,4.4-2.9,0-4.04-.93-4.04-2.9.4.06.91.11,1.44.11.47,0,1.14-.02,1.54-.11,0,.68.47,1.04,1.31,1.04.97,0,1.46-.51,1.48-1.69,0-.25.02-1.04.04-1.21.02-.17.06-.3.06-.4,0-.04-.02-.11-.08-.11-.13,0-.25.34-.51.55-.46.44-1.21.61-1.99.61-2.67,0-3.83-2.12-3.83-5.52,0-3,1.23-5.35,3.85-5.35,1.08,0,1.8.44,2.14.89.19.23.3.51.36.7.02.06.06.13.13.13.08,0,.13-.08.13-.21.02-.36.04-.97.11-1.27.32.06.93.08,1.29.08.51,0,1.06-.04,1.48-.08-.08.42-.13.89-.15,1.33ZM366.82,135.32c-.13-.91-.57-1.65-1.63-1.65-1.18,0-1.59,1.04-1.59,3.3,0,2.71.63,3.41,1.67,3.41.83,0,1.48-.68,1.54-1.5.04-.46.06-.97.06-1.76,0-.61,0-1.35-.06-1.8Z"/><path d="M375.64,132.63c0,.32-.04.61-.04.7,0,.11.06.13.11.13.06,0,.11-.11.23-.38.21-.46.59-.87,1.12-1.14s1.12-.38,1.74-.38c1.78,0,2.81,1.16,2.81,2.98v.15c0,1-.02,2.39-.02,3.79s0,2.86.04,3.92c-.49-.06-.95-.08-1.48-.08s-1.02.02-1.61.08c.02-1.02.02-2.35.02-3.72,0-1.29,0-2.58-.02-3.47-.02-.78-.32-1.33-1.12-1.33-.66,0-1.04.3-1.31.74-.21.34-.3.74-.32,1.54-.02.55-.02.91-.02,1.71,0,1.57.04,3.34.04,4.53-.47-.08-.95-.08-1.46-.08s-1.04.02-1.63.08c.02-.91.04-2.01.04-3.2,0-1.93-.02-4.04-.02-4.89-.06-1.23-.13-1.88-.23-2.5.55.06,1.06.08,1.61.08s.95-.04,1.4-.11c.08.3.13.59.13.85Z"/><path d="M385.56,142.3c-.32,0-.59.02-.95.08.02-.3.04-.61.04-1,0-.36-.02-.74-.04-1.02.27.02.61.04.89.04.34,0,.61-.02.95-.04-.02.3-.04.68-.04,1.08,0,.36.02.68.04.93-.32-.06-.61-.08-.89-.08Z"/><line class="cls-6" y1="158.75" x2="581.69" y2="158.75"/></g></svg>