<?xml version="1.0" encoding="UTF-8"?><svg id="Layer_2" xmlns="http://www.w3.org/2000/svg" viewBox="0 0 585.28 281.42"><defs><style>.cls-1,.cls-2,.cls-3,.cls-4,.cls-5,.cls-6{font-family:BrownPro, 'Brown Pro';}.cls-1,.cls-7{font-size:13.6px;}.cls-8{letter-spacing:.01em;}.cls-9{letter-spacing:0em;}.cls-10{letter-spacing:.31em;}.cls-2{font-size:20.56px;}.cls-11{letter-spacing:-.01em;}.cls-12{letter-spacing:0em;}.cls-13{letter-spacing:.02em;}.cls-14{letter-spacing:-.01em;}.cls-15{letter-spacing:0em;}.cls-3{font-size:21.16px;}.cls-16{letter-spacing:.02em;}.cls-17{letter-spacing:0em;}.cls-18{letter-spacing:0em;}.cls-19{letter-spacing:.01em;}.cls-20{letter-spacing:-.02em;}.cls-21{fill:#020202;}.cls-21,.cls-5{font-size:14px;}.cls-21,.cls-7{font-family:BrownProExtraBold, 'Brown Pro';}.cls-22{letter-spacing:.01em;}.cls-23{letter-spacing:0em;}.cls-24{letter-spacing:-.02em;}.cls-4{font-size:10.69px;}.cls-25{letter-spacing:-.06em;}.cls-26{letter-spacing:.01em;}.cls-27{letter-spacing:.02em;}.cls-28{letter-spacing:-.08em;}.cls-29{letter-spacing:.31em;}.cls-30{letter-spacing:.26em;}.cls-31{letter-spacing:.02em;}.cls-32{letter-spacing:0em;}.cls-33{letter-spacing:.26em;}.cls-34{font-family:BrownPro-Bold, 'Brown Pro';font-size:24px;font-weight:700;}.cls-35{letter-spacing:0em;}.cls-36{letter-spacing:-.01em;}.cls-37{letter-spacing:.26em;}.cls-38{letter-spacing:.02em;}.cls-39{letter-spacing:-.01em;}.cls-6{font-size:11px;}.cls-40{letter-spacing:0em;}.cls-41{letter-spacing:0em;}.cls-42{letter-spacing:0em;}.cls-43{letter-spacing:-.01em;}.cls-44{letter-spacing:.02em;}.cls-45{letter-spacing:.31em;}</style></defs><g id="Layer_1-2"><text transform="translate(0 54.66)"><tspan class="cls-3"><tspan x="0" y="0">Applic</tspan><tspan class="cls-18" x="56.14" y="0">a</tspan><tspan x="66.65" y="0">tion De</tspan><tspan class="cls-18" x="129.9" y="0">v</tspan><tspan x="139.44" y="0">elopment &amp; Integr</tspan><tspan class="cls-11" x="301.2" y="0">a</tspan><tspan x="311.72" y="0">tion Inte</tspan><tspan class="cls-22" x="384.82" y="0">r</tspan><tspan x="391.95" y="0">nship</tspan></tspan><tspan class="cls-21"><tspan x="0" y="16.8">FUJIFILM Business Inno</tspan><tspan class="cls-41" x="144.35" y="16.8">v</tspan><tspan x="150.96" y="16.8">ation Singapore (FBSG)</tspan></tspan><tspan class="cls-6"><tspan x="0" y="30">(May-Sep 2024)</tspan></tspan><tspan class="cls-5"><tspan x="0" y="63.6">I</tspan><tspan class="cls-45" x="3.5" y="63.6"> </tspan><tspan x="11.41" y="63.6">helped</tspan><tspan class="cls-10" x="51.47" y="63.6"> </tspan><tspan x="59.38" y="63.6">built</tspan><tspan class="cls-45" x="85.67" y="63.6"> </tspan><tspan x="93.58" y="63.6">a</tspan><tspan class="cls-10" x="100.68" y="63.6"> </tspan><tspan x="108.58" y="63.6">subscri</tspan><tspan class="cls-39" x="151.06" y="63.6">p</tspan><tspan x="158.52" y="63.6">tion</tspan><tspan class="cls-45" x="180.99" y="63.6"> </tspan><tspan x="188.89" y="63.6">management</tspan><tspan class="cls-45" x="266.23" y="63.6"> </tspan><tspan x="274.13" y="63.6">f</tspan><tspan class="cls-17" x="278.31" y="63.6">r</tspan><tspan x="282.75" y="63.6">ontend</tspan><tspan class="cls-45" x="323.79" y="63.6"> </tspan><tspan x="331.7" y="63.6">in</tspan><tspan class="cls-29" x="342.56" y="63.6"> </tspan><tspan x="350.47" y="63.6">C#</tspan><tspan class="cls-45" x="367.21" y="63.6"> </tspan><tspan class="cls-26" x="375.12" y="63.6">A</tspan><tspan x="383.59" y="63.6">S</tspan><tspan class="cls-28" x="391.38" y="63.6">P</tspan><tspan x="397.87" y="63.6">.NET</tspan><tspan class="cls-45" x="424.19" y="63.6"> </tspan><tspan x="432.09" y="63.6">MVC,</tspan><tspan class="cls-45" x="463.31" y="63.6"> </tspan><tspan x="471.22" y="63.6">de</tspan><tspan class="cls-43" x="485.82" y="63.6">v</tspan><tspan x="492.13" y="63.6">eloped</tspan><tspan class="cls-45" x="532" y="63.6"> </tspan><tspan x="539.91" y="63.6">se</tspan><tspan class="cls-17" x="553.25" y="63.6">v</tspan><tspan x="559.57" y="63.6">eral </tspan></tspan><tspan class="cls-5"><tspan x="0" y="80.4">mic</tspan><tspan class="cls-39" x="21.39" y="80.4">r</tspan><tspan x="25.83" y="80.4">ose</tspan><tspan class="cls-31" x="46.4" y="80.4">r</tspan><tspan x="51.25" y="80.4">vice</tspan><tspan class="cls-40" x="74.9" y="80.4"> </tspan><tspan x="78.57" y="80.4">APIs</tspan><tspan class="cls-40" x="104.31" y="80.4"> </tspan><tspan x="107.98" y="80.4">with</tspan><tspan class="cls-40" x="133.19" y="80.4"> </tspan><tspan x="136.86" y="80.4">Enti</tspan><tspan class="cls-16" x="159.23" y="80.4">t</tspan><tspan x="163.9" y="80.4">y</tspan><tspan class="cls-15" x="170.36" y="80.4"> </tspan><tspan class="cls-39" x="174.03" y="80.4">F</tspan><tspan x="180.75" y="80.4">rame</tspan><tspan class="cls-17" x="210.63" y="80.4">w</tspan><tspan x="220.45" y="80.4">ork</tspan><tspan class="cls-40" x="239.12" y="80.4"> </tspan><tspan x="242.78" y="80.4">Co</tspan><tspan class="cls-39" x="258.35" y="80.4">r</tspan><tspan x="262.79" y="80.4">e,</tspan><tspan class="cls-40" x="273.16" y="80.4"> </tspan><tspan x="276.83" y="80.4">and</tspan><tspan class="cls-40" x="298.95" y="80.4"> </tspan><tspan x="302.62" y="80.4">led</tspan><tspan class="cls-42" x="320.66" y="80.4"> </tspan><tspan x="324.33" y="80.4">autom</tspan><tspan class="cls-17" x="361.65" y="80.4">a</tspan><tspan x="368.61" y="80.4">ted</tspan><tspan class="cls-40" x="387.6" y="80.4"> </tspan><tspan x="391.26" y="80.4">testing</tspan><tspan class="cls-40" x="431.75" y="80.4"> </tspan><tspan x="435.42" y="80.4">with</tspan><tspan class="cls-40" x="460.63" y="80.4"> </tspan><tspan x="464.3" y="80.4">Selenium</tspan><tspan class="cls-40" x="519.02" y="80.4"> </tspan><tspan x="522.69" y="80.4">and</tspan><tspan class="cls-40" x="544.81" y="80.4"> </tspan><tspan x="548.48" y="80.4">xUnit. </tspan></tspan><tspan class="cls-5"><tspan x="0" y="97.2">I also helped implement audit </tspan><tspan class="cls-8" x="178.3" y="97.2">t</tspan><tspan x="182.82" y="97.2">railing and </tspan><tspan class="cls-39" x="249.08" y="97.2">r</tspan><tspan x="253.52" y="97.2">esol</tspan><tspan class="cls-39" x="277.53" y="97.2">v</tspan><tspan x="283.84" y="97.2">ed se</tspan><tspan class="cls-43" x="315.39" y="97.2">v</tspan><tspan x="321.7" y="97.2">eral critical suppo</tspan><tspan class="cls-19" x="427.09" y="97.2">r</tspan><tspan x="431.8" y="97.2">t cases.</tspan></tspan></text><text transform="translate(0 187.53) scale(1.03 1)"><tspan class="cls-2"><tspan x="0" y="0">Wi</tspan><tspan class="cls-23" x="23.46" y="0">r</tspan><tspan x="29.97" y="0">eless Resea</tspan><tspan class="cls-23" x="131.63" y="0">r</tspan><tspan x="138.15" y="0">ch Inte</tspan><tspan class="cls-35" x="196.99" y="0">r</tspan><tspan x="203.92" y="0">nship</tspan></tspan><tspan class="cls-7"><tspan x="0" y="16.32">Panasonic Research and Development Cen</tspan><tspan class="cls-32" x="255.96" y="16.32">t</tspan><tspan x="261.24" y="16.32">er Singapore (PRDCSG)</tspan></tspan><tspan class="cls-4"><tspan x="0" y="29.15">(Sep-Dec 2023)</tspan></tspan><tspan class="cls-1"><tspan x="0" y="58.3">I</tspan><tspan class="cls-30" x="3.4" y="58.3"> </tspan><tspan class="cls-14" x="10.47" y="58.3">w</tspan><tspan x="20.02" y="58.3">or</tspan><tspan class="cls-9" x="31.48" y="58.3">k</tspan><tspan x="38.01" y="58.3">ed</tspan><tspan class="cls-33" x="52.2" y="58.3"> </tspan><tspan x="59.27" y="58.3">on</tspan><tspan class="cls-30" x="73.5" y="58.3"> </tspan><tspan class="cls-14" x="80.56" y="58.3">r</tspan><tspan x="84.88" y="58.3">esea</tspan><tspan class="cls-9" x="111.54" y="58.3">r</tspan><tspan x="115.85" y="58.3">ch</tspan><tspan class="cls-33" x="129.62" y="58.3"> </tspan><tspan x="136.68" y="58.3">utilizing</tspan><tspan class="cls-30" x="181.87" y="58.3"> </tspan><tspan x="188.94" y="58.3">mm</tspan><tspan class="cls-24" x="210.7" y="58.3">W</tspan><tspan x="222.6" y="58.3">a</tspan><tspan class="cls-14" x="229.5" y="58.3">v</tspan><tspan class="cls-12" x="235.63" y="58.3">e</tspan><tspan class="cls-30" x="242.43" y="58.3"> </tspan><tspan x="249.5" y="58.3">technology</tspan><tspan class="cls-30" x="312.51" y="58.3"> </tspan><tspan x="319.57" y="58.3">and</tspan><tspan class="cls-37" x="341.07" y="58.3"> </tspan><tspan x="348.13" y="58.3">de</tspan><tspan class="cls-9" x="362.32" y="58.3">v</tspan><tspan x="368.46" y="58.3">eloped</tspan><tspan class="cls-30" x="407.19" y="58.3"> </tspan><tspan x="414.26" y="58.3">Digital</tspan><tspan class="cls-30" x="451.29" y="58.3"> </tspan><tspan x="458.35" y="58.3">Signal</tspan><tspan class="cls-30" x="494.03" y="58.3"> </tspan><tspan x="501.1" y="58.3">P</tspan><tspan class="cls-36" x="508.48" y="58.3">r</tspan><tspan x="512.8" y="58.3">ocessing </tspan></tspan><tspan class="cls-1"><tspan x="0" y="74.62">algorithms,</tspan><tspan class="cls-44" x="64.15" y="74.62"> </tspan><tspan x="67.89" y="74.62">including</tspan><tspan class="cls-13" x="120.81" y="74.62"> </tspan><tspan class="cls-24" x="124.55" y="74.62">F</tspan><tspan x="130.94" y="74.62">ast</tspan><tspan class="cls-44" x="148.26" y="74.62"> </tspan><tspan class="cls-14" x="152" y="74.62">F</tspan><tspan x="158.53" y="74.62">ourier</tspan><tspan class="cls-44" x="191.81" y="74.62"> </tspan><tspan class="cls-25" x="195.55" y="74.62">T</tspan><tspan x="201.1" y="74.62">rans</tspan><tspan class="cls-24" x="225.82" y="74.62">f</tspan><tspan x="229.6" y="74.62">orm,</tspan><tspan class="cls-44" x="255.22" y="74.62"> </tspan><tspan x="258.97" y="74.62">in</tspan><tspan class="cls-44" x="269.52" y="74.62"> </tspan><tspan x="273.27" y="74.62">Python.</tspan><tspan class="cls-44" x="315.91" y="74.62"> </tspan><tspan x="319.66" y="74.62">I</tspan><tspan class="cls-44" x="323.06" y="74.62"> </tspan><tspan x="326.8" y="74.62">also</tspan><tspan class="cls-44" x="350.23" y="74.62"> </tspan><tspan x="353.97" y="74.62">c</tspan><tspan class="cls-9" x="360.53" y="74.62">r</tspan><tspan x="364.84" y="74.62">e</tspan><tspan class="cls-36" x="371.64" y="74.62">a</tspan><tspan x="378.4" y="74.62">ted</tspan><tspan class="cls-27" x="396.84" y="74.62"> </tspan><tspan x="400.59" y="74.62">a</tspan><tspan class="cls-44" x="407.49" y="74.62"> </tspan><tspan x="411.23" y="74.62">p</tspan><tspan class="cls-9" x="418.62" y="74.62">r</tspan><tspan x="422.93" y="74.62">oto</tspan><tspan class="cls-38" x="441.22" y="74.62">t</tspan><tspan x="445.75" y="74.62">ype</tspan><tspan class="cls-44" x="466.23" y="74.62"> </tspan><tspan x="469.97" y="74.62">to</tspan><tspan class="cls-44" x="481.25" y="74.62"> </tspan><tspan x="484.99" y="74.62">sho</tspan><tspan class="cls-36" x="505.38" y="74.62">w</tspan><tspan x="514.93" y="74.62">case</tspan><tspan class="cls-44" x="541.35" y="74.62"> </tspan><tspan x="545.09" y="74.62">the </tspan></tspan><tspan class="cls-1"><tspan x="0" y="90.94">p</tspan><tspan class="cls-14" x="7.39" y="90.94">r</tspan><tspan x="11.7" y="90.94">oduct&apos;s potential, </tspan><tspan class="cls-9" x="114.1" y="90.94">w</tspan><tspan x="123.65" y="90.94">orking ac</tspan><tspan class="cls-14" x="176.58" y="90.94">r</tspan><tspan x="180.9" y="90.94">oss both Linux and Windows pl</tspan><tspan class="cls-9" x="358.53" y="90.94">a</tspan><tspan x="365.29" y="90.94">t</tspan><tspan class="cls-20" x="369.54" y="90.94">f</tspan><tspan x="373.32" y="90.94">orms.</tspan></tspan></text><text class="cls-34" transform="translate(0 20.33)"><tspan x="0" y="0">Experience</tspan></text></g></svg>